# Blender v2.81 (sub 16) OBJ File: 'store models 2 backup.blend'
# www.blender.org
mtllib cashier.mtl
o cashier_Cube.009
v -2.500000 -0.000002 3.500000
v -2.500000 4.808278 3.500000
v -2.500000 -0.000002 -3.500000
v -2.500000 4.808278 -3.500000
v 2.500000 -0.000002 3.500000
v 2.500000 4.808278 3.500000
v 2.500000 -0.000002 -3.500000
v 2.500000 4.808278 -3.500000
v -2.803800 4.808278 3.925321
v -2.803800 4.808278 -3.925321
v 2.803800 4.808278 -3.925321
v 2.803800 4.808278 3.925321
v -2.803800 5.230244 3.925321
v -2.803800 5.230244 -3.925321
v 2.803800 5.230244 -3.925321
v 2.803800 5.230244 3.925321
v 0.787419 5.237837 3.011950
v 0.787419 6.104447 3.011950
v 0.787419 5.237837 -0.385793
v 0.787419 6.104447 -0.385793
v 1.787419 5.237837 3.011950
v 1.787419 6.104447 3.011950
v 1.787419 5.237837 -0.385793
v 1.787419 6.104447 -0.385793
v 0.567490 6.862439 2.869370
v 0.567490 8.079604 2.869370
v 0.567490 6.862439 1.170264
v 0.567490 8.079604 1.170264
v 1.030270 6.946236 2.349239
v 0.932148 7.702489 2.638914
v 1.030270 6.946236 1.690394
v 0.932148 7.702489 1.400719
v 0.932148 8.237713 1.012155
v 0.932148 6.704330 1.012155
v 0.932148 6.704330 3.027478
v 0.932148 8.237713 3.027478
v 1.541321 7.341162 1.400719
v 1.443200 6.946236 1.690394
v 1.443200 6.946236 2.349239
v 1.541321 7.341162 2.638914
v 0.932148 7.085013 2.638914
v 0.932148 7.085013 1.400719
v 1.541321 7.037110 2.638914
v 1.541321 7.037110 1.400719
v 1.147632 6.694152 2.231876
v 1.147632 6.694152 1.807757
v 1.325837 6.694152 2.231876
v 1.325837 6.694152 1.807757
v 1.030270 6.787662 2.349239
v 1.030270 6.787662 1.690394
v 1.443200 6.787662 2.349239
v 1.443200 6.787662 1.690394
v 1.147632 6.241000 2.231876
v 1.147632 6.241000 1.807757
v 1.325837 6.241000 2.231876
v 1.325837 6.241000 1.807757
v 0.948636 6.241000 2.705479
v 0.948636 6.241000 1.334154
v 1.524833 6.241000 2.705479
v 1.524833 6.241000 1.334154
v 0.948636 6.119095 2.705479
v 0.948636 6.119095 1.334154
v 1.524833 6.119095 2.705479
v 1.524833 6.119095 1.334154
v -0.472559 5.237837 -0.385793
v -0.472559 5.237837 3.011950
v -0.472559 5.670523 3.011950
v -0.472559 5.670523 -0.385793
v 1.879777 10.366627 3.120223
v 1.879777 5.159969 3.120223
v 1.879777 10.366627 2.879777
v 1.879777 5.159969 2.879777
v 2.120222 10.366627 3.120223
v 2.120222 5.159969 3.120223
v 2.120222 10.366627 2.879777
v 2.120222 5.159969 2.879777
v 0.567490 6.704330 1.012155
v 0.567490 6.704330 3.027478
v 0.567490 8.237713 3.027478
v 0.567490 8.237713 1.012155
v 0.688926 6.862439 1.170264
v 0.688926 6.862439 2.869370
v 0.688926 8.079604 2.869370
v 0.688926 8.079604 1.170264
v 1.396993 9.605915 3.603007
v 1.396993 10.811930 3.603007
v 1.396993 9.605915 2.396993
v 1.396993 10.811930 2.396993
v 2.603007 9.605915 3.603007
v 2.603007 10.811930 3.603007
v 2.603007 9.605915 2.396993
v 2.603007 10.811930 2.396993
vt 0.299769 0.209539
vt 0.018963 0.016655
vt 0.299769 0.016655
vt 0.981724 0.209539
vt 0.781149 0.016655
vt 0.981724 0.016655
vt 0.781149 0.209539
vt 0.500344 0.016655
vt 0.500344 0.209539
vt 0.941181 0.536723
vt 0.959176 0.511530
vt 0.959176 0.536723
vt 0.771185 0.307062
vt 0.970633 0.251312
vt 0.961042 0.262273
vt 0.715639 0.412310
vt 0.753811 0.290807
vt 0.763022 0.300783
vt 0.727119 0.414476
vt 0.960951 0.568163
vt 0.817174 0.571590
vt 0.821120 0.559870
vt 0.462970 0.536084
vt 0.049210 0.240541
vt 0.462970 0.240541
vt 0.970633 0.584469
vt 0.811278 0.582307
vt 0.702737 0.415047
vt 0.966987 0.236346
vt 0.479093 0.709698
vt 0.697544 0.624021
vt 0.697544 0.709698
vt 0.767506 0.438481
vt 0.794234 0.404573
vt 0.804762 0.421933
vt 0.055841 0.557173
vt 0.389721 0.642331
vt 0.055841 0.642331
vt 0.786603 0.382492
vt 0.808961 0.364877
vt 0.793898 0.384217
vt 0.787289 0.403956
vt 0.858325 0.390237
vt 0.866477 0.350754
vt 0.870033 0.352658
vt 0.872716 0.434567
vt 0.932098 0.476839
vt 0.906142 0.489300
vt 0.910396 0.368099
vt 0.914873 0.384327
vt 0.909100 0.386331
vt 0.873011 0.391505
vt 0.875587 0.356101
vt 0.885051 0.362043
vt 0.941056 0.307121
vt 0.923118 0.292373
vt 0.881845 0.429215
vt 0.898949 0.424276
vt 0.939074 0.331758
vt 0.886983 0.390055
vt 0.894163 0.370902
vt 0.181602 0.720670
vt 0.084428 0.696808
vt 0.181602 0.696808
vt 0.084429 0.776256
vt 0.181602 0.776256
vt 0.928658 0.441213
vt 0.911831 0.414298
vt 0.919436 0.411615
vt 0.898747 0.388646
vt 0.934315 0.346073
vt 0.921510 0.404380
vt 0.903896 0.384447
vt 0.938074 0.413945
vt 0.494489 0.310007
vt 0.517107 0.252493
vt 0.517107 0.310007
vt 0.924862 0.400710
vt 0.941056 0.408190
vt 0.917117 0.371617
vt 0.939841 0.363140
vt 0.940245 0.353537
vt 0.929578 0.395839
vt 0.921238 0.383301
vt 0.938050 0.397964
vt 0.922447 0.375604
vt 0.686348 0.538351
vt 0.699509 0.495320
vt 0.697216 0.567103
vt 0.570936 0.252493
vt 0.570936 0.310007
vt 0.593554 0.252493
vt 0.593554 0.310007
vt 0.647383 0.252493
vt 0.647383 0.310007
vt 0.645165 0.559693
vt 0.633647 0.531467
vt 0.640002 0.533023
vt 0.668695 0.536918
vt 0.662794 0.527342
vt 0.682244 0.487751
vt 0.677315 0.509849
vt 0.687270 0.512991
vt 0.896595 0.511147
vt 0.865791 0.524090
vt 0.865791 0.511147
vt 0.679472 0.480750
vt 0.705889 0.490908
vt 0.705889 0.567256
vt 0.479093 0.596202
vt 0.697544 0.596202
vt 0.841427 0.451056
vt 0.829794 0.465838
vt 0.832253 0.329536
vt 0.841427 0.342955
vt 0.529428 0.911675
vt 0.031976 0.934647
vt 0.031977 0.911674
vt 0.529428 0.934647
vt 0.031977 0.957620
vt 0.529428 0.957620
vt 0.031977 0.980593
vt 0.529429 0.888702
vt 0.031977 0.888701
vt 0.538974 0.976148
vt 0.563462 0.951660
vt 0.563462 0.976148
vt 0.563462 0.927162
vt 0.538974 0.951650
vt 0.538974 0.927162
vt 0.863166 0.390873
vt 0.868882 0.435907
vt 0.897255 0.486458
vt 0.390428 0.825140
vt 0.249790 0.724393
vt 0.390428 0.724393
vt 0.854910 0.389907
vt 0.907237 0.291950
vt 0.910657 0.294309
vt 0.865115 0.437496
vt 0.891212 0.615084
vt 0.797653 0.708643
vt 0.797653 0.615084
vt 0.891212 0.708643
vt 0.797653 0.802202
vt 0.891212 0.802202
vt 0.797653 0.895761
vt 0.891212 0.895761
vt 0.797653 0.989320
vt 0.704094 0.895761
vt 0.704094 0.802202
vt 0.984771 0.802202
vt 0.018963 0.209539
vt 0.941181 0.511530
vt 0.049210 0.536084
vt 0.969574 0.596381
vt 0.479093 0.624021
vt 0.389721 0.557173
vt 0.775467 0.351809
vt 0.084429 0.720670
vt 0.494489 0.252493
vt 0.638955 0.560816
vt 0.896595 0.524090
vt 0.529429 0.980592
vt 0.538974 0.951660
vt 0.563462 0.951650
vt 0.249790 0.825140
vt 0.892102 0.489150
vt 0.891212 0.989320
vt 0.984771 0.895761
vn -1.0000 0.0000 0.0000
vn 0.0000 0.0000 -1.0000
vn 1.0000 0.0000 0.0000
vn 0.0000 0.0000 1.0000
vn 0.0000 -1.0000 0.0000
vn 0.0000 1.0000 0.0000
vn -0.3256 0.9455 0.0000
vn 0.5102 0.8601 0.0000
vn -0.8165 -0.5773 0.0000
vn 0.6795 -0.7337 0.0000
vn 0.0000 -0.9542 -0.2993
vn -0.0715 -0.9088 0.4112
vn -0.6231 -0.7821 0.0000
vn 0.6231 -0.7821 0.0000
vn 0.0000 -0.7821 -0.6231
vn 0.0000 -0.7821 0.6231
vn -0.0715 -0.9088 -0.4112
vn 0.0000 -0.9542 0.2993
usemtl Material.009
s off
f 2/1/1 3/2/1 1/3/1
f 4/4/2 7/5/2 3/6/2
f 8/7/3 5/8/3 7/5/3
f 6/9/4 1/3/4 5/8/4
f 7/10/5 1/11/5 3/12/5
f 2/13/5 10/14/5 4/15/5
f 12/16/4 13/17/4 9/18/4
f 6/19/5 9/18/5 2/13/5
f 4/20/5 11/21/5 8/22/5
f 8/22/5 12/16/5 6/19/5
f 14/23/6 16/24/6 15/25/6
f 10/26/2 15/27/2 11/21/2
f 11/21/3 16/28/3 12/16/3
f 9/18/1 14/29/1 10/14/1
f 20/30/7 67/31/7 18/32/7
f 20/33/2 23/34/2 19/35/2
f 24/36/3 21/37/3 23/38/3
f 22/39/4 17/40/4 21/41/4
f 23/34/5 17/40/5 19/35/5
f 20/33/6 22/39/6 24/42/6
f 26/43/2 82/44/2 25/45/2
f 80/46/2 34/47/2 77/48/2
f 29/49/4 51/50/4 39/51/4
f 36/52/4 78/53/4 35/54/4
f 34/55/5 78/53/5 77/56/5
f 80/46/6 36/52/6 33/57/6
f 32/58/3 34/47/3 33/57/3
f 42/59/3 35/54/3 34/55/3
f 32/58/3 36/52/3 30/60/3
f 30/60/3 35/54/3 41/61/3
f 37/62/3 43/63/3 44/64/3
f 30/65/8 37/62/8 32/66/8
f 42/67/2 37/68/2 44/69/2
f 41/61/4 40/70/4 30/60/4
f 29/49/9 42/59/9 31/71/9
f 38/72/10 43/73/10 39/51/10
f 31/74/11 44/69/11 38/72/11
f 29/49/12 43/73/12 41/61/12
f 45/75/4 55/76/4 47/77/4
f 39/51/3 52/78/3 38/72/3
f 38/72/2 50/79/2 31/74/2
f 31/71/1 49/80/1 29/49/1
f 46/81/13 49/80/13 50/82/13
f 48/83/14 51/50/14 47/84/14
f 46/85/15 52/78/15 48/83/15
f 47/84/16 49/80/16 45/86/16
f 56/87/6 59/88/6 60/89/6
f 47/77/3 56/90/3 48/91/3
f 48/91/2 54/92/2 46/93/2
f 46/93/1 53/94/1 45/95/1
f 60/96/2 62/97/2 58/98/2
f 56/99/6 58/98/6 54/100/6
f 54/100/6 57/101/6 53/102/6
f 53/102/6 59/88/6 55/103/6
f 62/104/5 63/105/5 61/106/5
f 58/98/1 61/107/1 57/101/1
f 57/101/4 63/108/4 59/88/4
f 59/88/3 64/109/3 60/89/3
f 67/31/1 65/110/1 66/111/1
f 17/40/5 65/112/5 19/35/5
f 19/35/2 68/113/2 20/33/2
f 17/40/4 67/114/4 66/115/4
f 70/116/3 71/117/3 69/118/3
f 72/119/4 75/120/4 71/117/4
f 76/121/1 73/122/1 75/120/1
f 74/123/2 69/118/2 73/124/2
f 75/125/5 69/126/5 71/127/5
f 72/128/6 74/129/6 76/130/6
f 25/45/1 77/56/1 78/53/1
f 25/45/1 79/131/1 26/43/1
f 26/43/1 80/46/1 28/132/1
f 28/132/1 77/48/1 27/133/1
f 83/134/1 81/135/1 82/136/1
f 28/132/5 83/137/5 26/43/5
f 25/45/6 81/138/6 27/139/6
f 27/133/4 84/140/4 28/132/4
f 86/141/1 87/142/1 85/143/1
f 88/144/2 91/145/2 87/142/2
f 92/146/3 89/147/3 91/145/3
f 90/148/4 85/149/4 89/147/4
f 91/145/5 85/150/5 87/151/5
f 88/152/6 90/148/6 92/146/6
f 2/1/1 4/153/1 3/2/1
f 4/4/2 8/7/2 7/5/2
f 8/7/3 6/9/3 5/8/3
f 6/9/4 2/1/4 1/3/4
f 7/10/5 5/154/5 1/11/5
f 2/13/5 9/18/5 10/14/5
f 12/16/4 16/28/4 13/17/4
f 6/19/5 12/16/5 9/18/5
f 4/20/5 10/26/5 11/21/5
f 8/22/5 11/21/5 12/16/5
f 14/23/6 13/155/6 16/24/6
f 10/26/2 14/156/2 15/27/2
f 11/21/3 15/27/3 16/28/3
f 9/18/1 13/17/1 14/29/1
f 20/30/7 68/157/7 67/31/7
f 20/33/2 24/42/2 23/34/2
f 24/36/3 22/158/3 21/37/3
f 22/39/4 18/159/4 17/40/4
f 23/34/5 21/41/5 17/40/5
f 20/33/6 18/159/6 22/39/6
f 26/43/2 83/137/2 82/44/2
f 80/46/2 33/57/2 34/47/2
f 29/49/4 49/80/4 51/50/4
f 36/52/4 79/131/4 78/53/4
f 34/55/5 35/54/5 78/53/5
f 80/46/6 79/131/6 36/52/6
f 32/58/3 42/67/3 34/47/3
f 42/59/3 41/61/3 35/54/3
f 32/58/3 33/57/3 36/52/3
f 30/60/3 36/52/3 35/54/3
f 37/62/3 40/160/3 43/63/3
f 30/65/8 40/160/8 37/62/8
f 42/67/2 32/58/2 37/68/2
f 41/61/4 43/73/4 40/70/4
f 29/49/9 41/61/9 42/59/9
f 38/72/10 44/69/10 43/73/10
f 31/74/17 42/67/17 44/69/17
f 29/49/18 39/51/18 43/73/18
f 45/75/4 53/161/4 55/76/4
f 39/51/3 51/50/3 52/78/3
f 38/72/2 52/78/2 50/79/2
f 31/71/1 50/82/1 49/80/1
f 46/81/13 45/86/13 49/80/13
f 48/83/14 52/78/14 51/50/14
f 46/85/15 50/79/15 52/78/15
f 47/84/16 51/50/16 49/80/16
f 56/87/6 55/103/6 59/88/6
f 47/77/3 55/76/3 56/90/3
f 48/91/2 56/90/2 54/92/2
f 46/93/1 54/92/1 53/94/1
f 60/96/2 64/162/2 62/97/2
f 56/99/6 60/96/6 58/98/6
f 54/100/6 58/98/6 57/101/6
f 53/102/6 57/101/6 59/88/6
f 62/104/5 64/163/5 63/105/5
f 58/98/1 62/97/1 61/107/1
f 57/101/4 61/107/4 63/108/4
f 59/88/3 63/108/3 64/109/3
f 67/31/1 68/157/1 65/110/1
f 17/40/5 66/115/5 65/112/5
f 19/35/2 65/112/2 68/113/2
f 17/40/4 18/159/4 67/114/4
f 70/116/3 72/119/3 71/117/3
f 72/119/4 76/121/4 75/120/4
f 76/121/1 74/164/1 73/122/1
f 74/123/2 70/116/2 69/118/2
f 75/125/5 73/165/5 69/126/5
f 72/128/6 70/166/6 74/129/6
f 25/45/1 27/139/1 77/56/1
f 25/45/1 78/53/1 79/131/1
f 26/43/1 79/131/1 80/46/1
f 28/132/1 80/46/1 77/48/1
f 83/134/1 84/167/1 81/135/1
f 28/132/5 84/140/5 83/137/5
f 25/45/6 82/44/6 81/138/6
f 27/133/4 81/168/4 84/140/4
f 86/141/1 88/144/1 87/142/1
f 88/144/2 92/146/2 91/145/2
f 92/146/3 90/148/3 89/147/3
f 90/148/4 86/169/4 85/149/4
f 91/145/5 89/147/5 85/150/5
f 88/152/6 86/170/6 90/148/6
