# Blender v2.81 (sub 16) OBJ File: 'store models 2 backup.blend'
# www.blender.org
mtllib monitor.mtl
o monitor_Cube.011
v -0.164072 5.956521 -2.579380
v -0.164072 7.173686 -2.579380
v -1.465663 5.956521 -1.487215
v -1.465663 7.173686 -1.487215
v -0.859984 6.040318 -2.599555
v -0.575009 6.796571 -2.710589
v -1.364688 6.040318 -2.176059
v -1.523521 6.796571 -1.914693
v -1.821178 7.331795 -1.664929
v -1.821178 5.798412 -1.664929
v -0.277351 5.798412 -2.960354
v -0.277351 7.331795 -2.960354
v -1.915090 6.435244 -2.381347
v -1.630114 6.040318 -2.492381
v -1.125410 6.040318 -2.915878
v -0.966578 6.435244 -3.177243
v -0.575009 6.179095 -2.710589
v -1.523521 6.179095 -1.914693
v -0.966578 6.131192 -3.177243
v -1.915090 6.131192 -2.381347
v -1.025329 5.788234 -2.614021
v -1.350222 5.788234 -2.341403
v -1.139876 5.788234 -2.750534
v -1.464770 5.788234 -2.477916
v -0.859984 5.881744 -2.599555
v -1.364688 5.881744 -2.176059
v -1.125410 5.881744 -2.915878
v -1.630114 5.881744 -2.492381
v -1.025329 5.335082 -2.614021
v -1.350222 5.335082 -2.341403
v -1.139876 5.335082 -2.750534
v -1.464770 5.335082 -2.477916
v -0.534615 5.335082 -2.766008
v -1.585111 5.335082 -1.884537
v -0.904987 5.335082 -3.207400
v -1.955484 5.335082 -2.325929
v -0.534615 5.213177 -2.766008
v -1.585111 5.213177 -1.884537
v -0.904987 5.213177 -3.207400
v -1.955484 5.213177 -2.325929
v -1.586781 5.798412 -1.385585
v -0.042954 5.798412 -2.681010
v -0.042954 7.331795 -2.681010
v -1.586781 7.331795 -1.385585
v -1.543720 5.956521 -1.580241
v -0.242130 5.956521 -2.672405
v -0.242130 7.173686 -2.672405
v -1.543720 7.173686 -1.580241
vt 0.393263 0.802589
vt 0.401415 0.763106
vt 0.404971 0.765010
vt 0.407654 0.846919
vt 0.467036 0.889191
vt 0.441080 0.901652
vt 0.445334 0.780451
vt 0.449811 0.796679
vt 0.444038 0.798683
vt 0.407949 0.803857
vt 0.410525 0.768453
vt 0.419989 0.774395
vt 0.475994 0.719473
vt 0.458056 0.704725
vt 0.416783 0.841567
vt 0.398104 0.803225
vt 0.433887 0.836628
vt 0.429101 0.783254
vt 0.474012 0.744110
vt 0.421921 0.802407
vt 0.302478 0.797085
vt 0.205304 0.773223
vt 0.302478 0.773223
vt 0.302478 0.852670
vt 0.205304 0.797085
vt 0.463596 0.853565
vt 0.446768 0.826651
vt 0.454374 0.823967
vt 0.433685 0.800998
vt 0.469253 0.758425
vt 0.438834 0.796799
vt 0.473012 0.826297
vt 0.456448 0.816733
vt 0.029427 0.722359
vt 0.052045 0.664845
vt 0.052045 0.722359
vt 0.459800 0.813062
vt 0.475994 0.820542
vt 0.452055 0.783969
vt 0.474779 0.775493
vt 0.475183 0.765889
vt 0.464516 0.808191
vt 0.456176 0.795654
vt 0.472988 0.810316
vt 0.457385 0.787956
vt 0.222208 0.925344
vt 0.232154 0.979455
vt 0.221286 0.950703
vt 0.105874 0.664845
vt 0.105874 0.722359
vt 0.128492 0.664845
vt 0.128492 0.722359
vt 0.182321 0.664845
vt 0.182321 0.722359
vt 0.180102 0.972046
vt 0.168585 0.943820
vt 0.174939 0.945375
vt 0.203633 0.949270
vt 0.197732 0.939695
vt 0.217181 0.900103
vt 0.212253 0.922201
vt 0.234447 0.907672
vt 0.431532 0.923499
vt 0.400729 0.936442
vt 0.400729 0.923499
vt 0.214410 0.893102
vt 0.240827 0.903260
vt 0.240827 0.979609
vt 0.403820 0.848259
vt 0.432193 0.898810
vt 0.821593 0.990386
vt 0.637762 0.858698
vt 0.821593 0.858698
vt 0.400053 0.849848
vt 0.389848 0.802260
vt 0.442175 0.704302
vt 0.445595 0.706661
vt 0.205304 0.852670
vt 0.029427 0.664845
vt 0.173893 0.973168
vt 0.431532 0.936442
vt 0.637762 0.990386
vt 0.427040 0.901502
vn -0.7660 0.0000 0.6428
vn 0.7660 0.0000 -0.6428
vn 0.0000 -1.0000 0.0000
vn 0.0000 1.0000 0.0000
vn -0.6428 0.0000 -0.7660
vn -0.3279 0.8601 -0.3908
vn 0.5248 -0.5773 0.6255
vn -0.4368 -0.7337 -0.5205
vn -0.2293 -0.9541 0.1924
vn 0.3609 -0.9088 -0.2096
vn 0.6428 0.0000 0.7660
vn 0.4006 -0.7821 0.4774
vn -0.4005 -0.7821 -0.4774
vn -0.4774 -0.7821 0.4006
vn 0.4774 -0.7821 -0.4005
vn -0.2690 -0.9088 0.3190
vn 0.2293 -0.9542 -0.1924
vn -0.4006 -0.7821 -0.4774
vn -0.4774 -0.7821 0.4005
vn 0.4774 -0.7821 -0.4006
usemtl Material.010
s off
f 2/1/1 46/2/1 1/3/1
f 44/4/1 10/5/1 41/6/1
f 5/7/2 27/8/2 15/9/2
f 12/10/2 42/11/2 11/12/2
f 10/13/3 42/11/3 41/14/3
f 9/15/4 43/16/4 12/10/4
f 8/17/5 10/5/5 9/15/5
f 17/18/5 10/13/5 18/19/5
f 6/20/5 9/15/5 12/10/5
f 6/20/5 11/12/5 17/18/5
f 13/21/5 19/22/5 20/23/5
f 8/24/6 16/25/6 13/21/6
f 18/26/1 13/27/1 20/28/1
f 17/18/2 16/29/2 6/20/2
f 5/7/7 18/19/7 7/30/7
f 15/9/8 20/28/8 19/31/8
f 7/32/9 20/28/9 14/33/9
f 5/7/10 19/31/10 17/18/10
f 21/34/2 31/35/2 23/36/2
f 15/9/5 28/37/5 14/33/5
f 14/33/1 26/38/1 7/32/1
f 7/30/11 25/39/11 5/7/11
f 22/40/12 25/39/12 26/41/12
f 24/42/13 27/8/13 23/43/13
f 22/44/14 28/37/14 24/42/14
f 23/43/15 25/39/15 21/45/15
f 31/46/4 36/47/4 32/48/4
f 23/36/5 32/49/5 24/50/5
f 24/50/1 30/51/1 22/52/1
f 22/52/11 29/53/11 21/54/11
f 36/55/1 38/56/1 34/57/1
f 32/58/4 34/57/4 30/59/4
f 30/59/4 33/60/4 29/61/4
f 31/46/4 33/60/4 35/62/4
f 38/63/3 39/64/3 37/65/3
f 34/57/11 37/66/11 33/60/11
f 33/60/2 39/67/2 35/62/2
f 35/62/5 40/68/5 36/47/5
f 1/3/11 41/14/11 42/11/11
f 1/3/11 43/16/11 2/1/11
f 2/1/11 44/4/11 4/69/11
f 4/69/11 41/6/11 3/70/11
f 47/71/11 45/72/11 46/73/11
f 2/1/3 48/74/3 47/75/3
f 1/3/4 45/76/4 3/77/4
f 3/70/2 48/74/2 4/69/2
f 2/1/1 47/75/1 46/2/1
f 44/4/1 9/15/1 10/5/1
f 5/7/2 25/39/2 27/8/2
f 12/10/2 43/16/2 42/11/2
f 10/13/3 11/12/3 42/11/3
f 9/15/4 44/4/4 43/16/4
f 8/17/5 18/26/5 10/5/5
f 17/18/5 11/12/5 10/13/5
f 6/20/5 8/17/5 9/15/5
f 6/20/5 12/10/5 11/12/5
f 13/21/5 16/25/5 19/22/5
f 8/24/6 6/78/6 16/25/6
f 18/26/1 8/17/1 13/27/1
f 17/18/2 19/31/2 16/29/2
f 5/7/7 17/18/7 18/19/7
f 15/9/8 14/33/8 20/28/8
f 7/32/16 18/26/16 20/28/16
f 5/7/17 15/9/17 19/31/17
f 21/34/2 29/79/2 31/35/2
f 15/9/5 27/8/5 28/37/5
f 14/33/1 28/37/1 26/38/1
f 7/30/11 26/41/11 25/39/11
f 22/40/12 21/45/12 25/39/12
f 24/42/18 28/37/18 27/8/18
f 22/44/19 26/38/19 28/37/19
f 23/43/20 27/8/20 25/39/20
f 31/46/4 35/62/4 36/47/4
f 23/36/5 31/35/5 32/49/5
f 24/50/1 32/49/1 30/51/1
f 22/52/11 30/51/11 29/53/11
f 36/55/1 40/80/1 38/56/1
f 32/58/4 36/55/4 34/57/4
f 30/59/4 34/57/4 33/60/4
f 31/46/4 29/61/4 33/60/4
f 38/63/3 40/81/3 39/64/3
f 34/57/11 38/56/11 37/66/11
f 33/60/2 37/66/2 39/67/2
f 35/62/5 39/67/5 40/68/5
f 1/3/11 3/77/11 41/14/11
f 1/3/11 42/11/11 43/16/11
f 2/1/11 43/16/11 44/4/11
f 4/69/11 44/4/11 41/6/11
f 47/71/11 48/82/11 45/72/11
f 2/1/3 4/69/3 48/74/3
f 1/3/4 46/2/4 45/76/4
f 3/70/2 45/83/2 48/74/2
