# Blender v2.81 (sub 16) OBJ File: 'store models 3.blend'
# www.blender.org
mtllib window.mtl
o window_Cube.013
v 50.575642 14.284464 -22.464769
v 50.575642 15.284464 -22.464769
v 50.575642 14.284464 -23.464769
v 50.575642 15.284464 -23.464769
v -18.325277 -0.792005 -23.454641
v -18.325277 15.086336 -23.454641
v -18.325277 -0.792005 -23.159569
v -18.325277 15.086336 -23.159569
v 50.461220 -0.792005 -23.454641
v 50.461220 15.086336 -23.454641
v 50.461220 -0.792005 -23.159569
v 50.461220 15.086336 -23.159569
v -17.866854 15.284464 -23.464769
v -17.866854 14.284464 -23.464769
v -17.866854 15.284464 -22.464769
v -17.866854 14.284464 -22.464769
v -18.325272 14.556093 -23.454641
v -18.325272 23.075193 -23.454641
v -18.325272 14.556093 -23.159569
v -18.325272 23.075193 -23.159569
v 50.461212 14.556093 -23.454641
v 50.461212 23.075193 -23.454641
v 50.461212 14.556093 -23.159569
v 50.461212 23.075193 -23.159569
v 50.575634 14.644262 -22.762688
v 50.575634 16.518324 -22.762688
v 50.575634 14.644262 -23.464769
v 50.575634 16.518324 -23.464769
v -17.866848 16.518324 -23.464769
v -17.866848 14.644262 -23.464769
v -17.866848 16.518324 -22.762688
v -17.866848 14.644262 -22.762688
v -5.279618 -0.579548 -22.730663
v -5.279618 14.398270 -22.730663
v -5.279618 -0.579548 -23.837982
v -5.279618 14.398270 -23.837982
v -4.279619 -0.579548 -22.730663
v -4.279619 14.398270 -22.730663
v -4.279619 -0.579548 -23.837982
v -4.279619 14.398270 -23.837982
v 50.575634 -0.061107 -22.464769
v 50.575634 0.453900 -22.464769
v 50.575634 -0.061107 -23.464769
v 50.575634 0.453900 -23.464769
v -17.866852 0.453900 -23.464769
v -17.866852 -0.061107 -23.464769
v -17.866852 0.453900 -22.464769
v -17.866852 -0.061107 -22.464769
v 5.168882 -0.579548 -22.730663
v 5.168882 14.398270 -22.730663
v 5.168882 -0.579548 -23.837982
v 5.168882 14.398270 -23.837982
v 6.168882 -0.579548 -22.730663
v 6.168882 14.398270 -22.730663
v 6.168882 -0.579548 -23.837982
v 6.168882 14.398270 -23.837982
v 15.184709 -0.579548 -22.730663
v 15.184709 14.398270 -22.730663
v 15.184709 -0.579548 -23.837982
v 15.184709 14.398270 -23.837982
v 16.184706 -0.579548 -22.730663
v 16.184706 14.398270 -22.730663
v 16.184706 -0.579548 -23.837982
v 16.184706 14.398270 -23.837982
v 25.615883 -0.579548 -22.730663
v 25.615883 14.398270 -22.730663
v 25.615883 -0.579548 -23.837982
v 25.615883 14.398270 -23.837982
v 26.615883 -0.579548 -22.730663
v 26.615883 14.398270 -22.730663
v 26.615883 -0.579548 -23.837982
v 26.615883 14.398270 -23.837982
v 36.063946 -0.579548 -22.730663
v 36.063946 14.398270 -22.730663
v 36.063946 -0.579548 -23.837982
v 36.063946 14.398270 -23.837982
v 37.063946 -0.579548 -22.730663
v 37.063946 14.398270 -22.730663
v 37.063946 -0.579548 -23.837982
v 37.063946 14.398270 -23.837982
v -15.935265 -0.579548 -22.730663
v -15.935265 14.398270 -22.730663
v -15.935265 -0.579548 -23.837982
v -15.935265 14.398270 -23.837982
v -14.935265 -0.579548 -22.730663
v -14.935265 14.398270 -22.730663
v -14.935265 -0.579548 -23.837982
v -14.935265 14.398270 -23.837982
v -15.912641 -0.925661 50.140648
v -15.912641 22.622799 50.140648
v -15.912641 -0.925661 -24.387533
v -15.912641 22.622799 -24.387533
v -15.482460 -0.925661 50.140648
v -15.482460 22.622799 50.140648
v -15.482460 -0.925661 -24.387533
v -15.482460 22.622799 -24.387533
vt 0.211914 0.685547
vt 0.195312 0.685547
vt 0.195312 0.702148
vt 0.158203 0.748047
vt 0.158203 0.691406
vt 0.158203 0.691406
vt 0.211914 0.702148
vt 0.195312 0.702148
vt 0.195312 0.719727
vt 0.211914 0.719727
vt 0.195312 0.719727
vt 0.195312 0.737305
vt 0.000000 0.769531
vt 0.000000 1.000000
vt 1.000000 1.000000
vt 0.165039 0.691406
vt 0.165039 0.748047
vt 0.165039 0.749023
vt 0.195312 0.719727
vt 0.177734 0.719727
vt 0.177734 0.737305
vt 0.211914 0.737305
vt 0.195312 0.737305
vt 0.195312 0.754883
vt 0.165039 0.691406
vt 0.158203 0.749023
vt 0.229492 0.719727
vt 0.211914 0.719727
vt 0.211914 0.737305
vt 0.152344 0.688477
vt 0.152344 0.734375
vt 0.152344 0.734375
vt 0.077148 0.722656
vt 0.077148 0.714844
vt 0.016602 0.714844
vt 0.149414 0.734375
vt 0.149414 0.688477
vt 0.148438 0.687500
vt 0.148438 0.734375
vt 0.152344 0.687500
vt 0.127930 0.687500
vt 0.115234 0.687500
vt 0.115234 0.700195
vt 0.127930 0.700195
vt 0.115234 0.700195
vt 0.115234 0.712891
vt 0.127930 0.712891
vt 0.115234 0.712891
vt 0.115234 0.726562
vt 0.115234 0.712891
vt 0.101562 0.712891
vt 0.101562 0.726562
vt 0.127930 0.726562
vt 0.115234 0.726562
vt 0.115234 0.739258
vt 0.141602 0.712891
vt 0.127930 0.712891
vt 0.127930 0.726562
vt 0.211914 0.690430
vt 0.195312 0.690430
vt 0.195312 0.706055
vt 0.211914 0.706055
vt 0.195312 0.721680
vt 0.211914 0.721680
vt 0.195312 0.738281
vt 0.211914 0.738281
vt 0.195312 0.753906
vt 0.179688 0.721680
vt 0.179688 0.738281
vt 0.227539 0.721680
vt 0.211914 0.685547
vt 0.195312 0.685547
vt 0.195312 0.702148
vt 0.211914 0.702148
vt 0.195312 0.702148
vt 0.195312 0.719727
vt 0.211914 0.719727
vt 0.195312 0.719727
vt 0.195312 0.737305
vt 0.195312 0.719727
vt 0.177734 0.719727
vt 0.177734 0.737305
vt 0.211914 0.737305
vt 0.195312 0.737305
vt 0.195312 0.754883
vt 0.229492 0.719727
vt 0.211914 0.719727
vt 0.211914 0.737305
vt 0.211914 0.690430
vt 0.195312 0.690430
vt 0.195312 0.706055
vt 0.211914 0.706055
vt 0.195312 0.721680
vt 0.211914 0.721680
vt 0.195312 0.738281
vt 0.211914 0.738281
vt 0.195312 0.753906
vt 0.179688 0.721680
vt 0.179688 0.738281
vt 0.227539 0.721680
vt 0.211914 0.690430
vt 0.195312 0.690430
vt 0.195312 0.706055
vt 0.211914 0.706055
vt 0.195312 0.721680
vt 0.211914 0.721680
vt 0.195312 0.738281
vt 0.211914 0.738281
vt 0.195312 0.753906
vt 0.179688 0.721680
vt 0.179688 0.738281
vt 0.227539 0.721680
vt 0.211914 0.690430
vt 0.195312 0.690430
vt 0.195312 0.706055
vt 0.211914 0.706055
vt 0.195312 0.721680
vt 0.211914 0.721680
vt 0.195312 0.738281
vt 0.211914 0.738281
vt 0.195312 0.753906
vt 0.179688 0.721680
vt 0.179688 0.738281
vt 0.227539 0.721680
vt 0.211914 0.690430
vt 0.195312 0.690430
vt 0.195312 0.706055
vt 0.211914 0.706055
vt 0.195312 0.721680
vt 0.211914 0.721680
vt 0.195312 0.738281
vt 0.211914 0.738281
vt 0.195312 0.753906
vt 0.179688 0.721680
vt 0.179688 0.738281
vt 0.227539 0.721680
vt 0.211914 0.690430
vt 0.195312 0.690430
vt 0.195312 0.706055
vt 0.211914 0.706055
vt 0.195312 0.721680
vt 0.211914 0.721680
vt 0.195312 0.738281
vt 0.211914 0.738281
vt 0.195312 0.753906
vt 0.179688 0.721680
vt 0.179688 0.738281
vt 0.227539 0.721680
vt 0.269531 0.687500
vt 0.242188 0.687500
vt 0.242188 0.742188
vt 0.269531 0.742188
vt 0.242188 0.746094
vt 0.999944 0.315988
vt 0.999944 0.000056
vt 0.000056 0.000056
vt 0.269531 0.683594
vt 0.242188 0.687500
vt 0.269531 0.742188
vt 0.211914 0.702148
vt 0.211914 0.719727
vt 0.211914 0.737305
vt 1.000000 0.769531
vt 0.195312 0.737305
vt 0.211914 0.754883
vt 0.229492 0.737305
vt 0.016602 0.722656
vt 0.127930 0.700195
vt 0.127930 0.712891
vt 0.127930 0.726562
vt 0.115234 0.726562
vt 0.127930 0.739258
vt 0.141602 0.726562
vt 0.211914 0.753906
vt 0.227539 0.738281
vt 0.211914 0.702148
vt 0.211914 0.719727
vt 0.211914 0.737305
vt 0.195312 0.737305
vt 0.211914 0.754883
vt 0.229492 0.737305
vt 0.211914 0.753906
vt 0.227539 0.738281
vt 0.211914 0.753906
vt 0.227539 0.738281
vt 0.211914 0.753906
vt 0.227539 0.738281
vt 0.211914 0.753906
vt 0.227539 0.738281
vt 0.211914 0.753906
vt 0.227539 0.738281
vt 0.000056 0.315988
vn 0.0000 0.0000 1.0000
vn 0.0000 -1.0000 0.0000
vn 0.0000 0.0000 -1.0000
vn 0.0000 1.0000 0.0000
vn -1.0000 0.0000 0.0000
vn 1.0000 0.0000 0.0000
usemtl Material.014
s off
f 13/1/1 14/2/1 3/3/1
f 6/4/2 10/5/2 12/6/2
f 2/7/3 1/8/3 16/9/3
f 13/10/2 4/11/2 2/12/2
f 7/13/3 8/14/3 12/15/3
f 9/16/4 5/17/4 7/18/4
f 3/19/4 14/20/4 16/21/4
f 4/22/5 3/23/5 1/24/5
f 9/16/1 10/5/1 6/4/1
f 11/25/5 12/6/5 10/5/5
f 5/17/6 6/4/6 8/26/6
f 15/27/6 16/28/6 14/29/6
f 18/30/2 22/31/2 24/32/2
f 19/33/3 20/34/3 24/35/3
f 21/36/4 17/37/4 19/38/4
f 21/36/1 22/31/1 18/30/1
f 23/39/5 24/32/5 22/31/5
f 17/37/6 18/30/6 20/40/6
f 29/41/1 30/42/1 27/43/1
f 26/44/3 25/45/3 32/46/3
f 29/47/2 28/48/2 26/49/2
f 27/50/4 30/51/4 32/52/4
f 28/53/5 27/54/5 25/55/5
f 31/56/6 32/57/6 30/58/6
f 34/59/6 33/60/6 35/61/6
f 36/62/1 35/61/1 39/63/1
f 40/64/5 39/63/5 37/65/5
f 38/66/3 37/65/3 33/67/3
f 39/63/4 35/68/4 33/69/4
f 36/70/2 40/64/2 38/66/2
f 45/71/1 46/72/1 43/73/1
f 42/74/3 41/75/3 48/76/3
f 45/77/2 44/78/2 42/79/2
f 43/80/4 46/81/4 48/82/4
f 44/83/5 43/84/5 41/85/5
f 47/86/6 48/87/6 46/88/6
f 50/89/6 49/90/6 51/91/6
f 52/92/1 51/91/1 55/93/1
f 56/94/5 55/93/5 53/95/5
f 54/96/3 53/95/3 49/97/3
f 55/93/4 51/98/4 49/99/4
f 52/100/2 56/94/2 54/96/2
f 58/101/6 57/102/6 59/103/6
f 60/104/1 59/103/1 63/105/1
f 64/106/5 63/105/5 61/107/5
f 62/108/3 61/107/3 57/109/3
f 63/105/4 59/110/4 57/111/4
f 60/112/2 64/106/2 62/108/2
f 66/113/6 65/114/6 67/115/6
f 68/116/1 67/115/1 71/117/1
f 72/118/5 71/117/5 69/119/5
f 70/120/3 69/119/3 65/121/3
f 71/117/4 67/122/4 65/123/4
f 68/124/2 72/118/2 70/120/2
f 74/125/6 73/126/6 75/127/6
f 76/128/1 75/127/1 79/129/1
f 80/130/5 79/129/5 77/131/5
f 78/132/3 77/131/3 73/133/3
f 79/129/4 75/134/4 73/135/4
f 76/136/2 80/130/2 78/132/2
f 82/137/6 81/138/6 83/139/6
f 84/140/1 83/139/1 87/141/1
f 88/142/5 87/141/5 85/143/5
f 86/144/3 85/143/3 81/145/3
f 87/141/4 83/146/4 81/147/4
f 84/148/2 88/142/2 86/144/2
f 90/149/6 89/150/6 91/151/6
f 92/152/1 91/151/1 95/153/1
f 96/154/5 95/155/5 93/156/5
f 94/157/3 93/158/3 89/150/3
f 95/153/4 91/151/4 89/150/4
f 92/152/2 96/159/2 94/157/2
f 13/1/1 3/3/1 4/160/1
f 6/4/2 12/6/2 8/26/2
f 2/7/3 16/9/3 15/161/3
f 13/10/2 2/12/2 15/162/2
f 7/13/3 12/15/3 11/163/3
f 9/16/4 7/18/4 11/25/4
f 3/19/4 16/21/4 1/164/4
f 4/22/5 1/24/5 2/165/5
f 9/16/1 6/4/1 5/17/1
f 11/25/5 10/5/5 9/16/5
f 5/17/6 8/26/6 7/18/6
f 15/27/6 14/29/6 13/166/6
f 18/30/2 24/32/2 20/40/2
f 19/33/3 24/35/3 23/167/3
f 21/36/4 19/38/4 23/39/4
f 21/36/1 18/30/1 17/37/1
f 23/39/5 22/31/5 21/36/5
f 17/37/6 20/40/6 19/38/6
f 29/41/1 27/43/1 28/168/1
f 26/44/3 32/46/3 31/169/3
f 29/47/2 26/49/2 31/170/2
f 27/50/4 32/52/4 25/171/4
f 28/53/5 25/55/5 26/172/5
f 31/56/6 30/58/6 29/173/6
f 34/59/6 35/61/6 36/62/6
f 36/62/1 39/63/1 40/64/1
f 40/64/5 37/65/5 38/66/5
f 38/66/3 33/67/3 34/174/3
f 39/63/4 33/69/4 37/65/4
f 36/70/2 38/66/2 34/175/2
f 45/71/1 43/73/1 44/176/1
f 42/74/3 48/76/3 47/177/3
f 45/77/2 42/79/2 47/178/2
f 43/80/4 48/82/4 41/179/4
f 44/83/5 41/85/5 42/180/5
f 47/86/6 46/88/6 45/181/6
f 50/89/6 51/91/6 52/92/6
f 52/92/1 55/93/1 56/94/1
f 56/94/5 53/95/5 54/96/5
f 54/96/3 49/97/3 50/182/3
f 55/93/4 49/99/4 53/95/4
f 52/100/2 54/96/2 50/183/2
f 58/101/6 59/103/6 60/104/6
f 60/104/1 63/105/1 64/106/1
f 64/106/5 61/107/5 62/108/5
f 62/108/3 57/109/3 58/184/3
f 63/105/4 57/111/4 61/107/4
f 60/112/2 62/108/2 58/185/2
f 66/113/6 67/115/6 68/116/6
f 68/116/1 71/117/1 72/118/1
f 72/118/5 69/119/5 70/120/5
f 70/120/3 65/121/3 66/186/3
f 71/117/4 65/123/4 69/119/4
f 68/124/2 70/120/2 66/187/2
f 74/125/6 75/127/6 76/128/6
f 76/128/1 79/129/1 80/130/1
f 80/130/5 77/131/5 78/132/5
f 78/132/3 73/133/3 74/188/3
f 79/129/4 73/135/4 77/131/4
f 76/136/2 78/132/2 74/189/2
f 82/137/6 83/139/6 84/140/6
f 84/140/1 87/141/1 88/142/1
f 88/142/5 85/143/5 86/144/5
f 86/144/3 81/145/3 82/190/3
f 87/141/4 81/147/4 85/143/4
f 84/148/2 86/144/2 82/191/2
f 90/149/6 91/151/6 92/152/6
f 92/152/1 95/153/1 96/159/1
f 96/154/5 93/156/5 94/192/5
f 94/157/3 89/150/3 90/149/3
f 95/153/4 89/150/4 93/158/4
f 92/152/2 94/157/2 90/149/2
