# Blender v2.81 (sub 16) OBJ File: 'more items.blend'
# www.blender.org
mtllib calpico_strawberry.mtl
o calpico_strawberry_Cube.001
v -0.285037 -0.988306 0.380049
v -0.380049 -0.988306 0.285037
v -0.373000 0.622445 0.279750
v -0.279750 0.622445 0.373000
v -0.380049 -0.988306 -0.285037
v -0.285037 -0.988306 -0.380049
v -0.279750 0.622445 -0.373000
v -0.373000 0.622445 -0.279750
v 0.380049 -0.988306 0.285037
v 0.285037 -0.988306 0.380049
v 0.279750 0.622445 0.373000
v 0.373000 0.622445 0.279750
v 0.285037 -0.988306 -0.380049
v 0.380049 -0.988306 -0.285037
v 0.373000 0.622445 -0.279750
v 0.279750 0.622445 -0.373000
v -0.361358 0.698578 0.271018
v -0.271018 0.698578 0.361358
v -0.271018 0.698578 -0.361358
v -0.361358 0.698578 -0.271018
v 0.271018 0.698578 0.361358
v 0.361358 0.698578 0.271018
v 0.361358 0.698578 -0.271018
v 0.271018 0.698578 -0.361358
v -0.157630 1.060198 0.118222
v -0.118222 1.060198 0.157630
v -0.118222 1.060198 -0.157630
v -0.157630 1.060198 -0.118222
v 0.118222 1.060198 0.157630
v 0.157630 1.060198 0.118222
v 0.157630 1.060198 -0.118222
v 0.118222 1.060198 -0.157630
v -0.157630 1.164926 0.118222
v -0.118222 1.164926 0.157630
v -0.118222 1.164926 -0.157630
v -0.157630 1.164926 -0.118222
v 0.118222 1.164926 0.157630
v 0.157630 1.164926 0.118222
v 0.157630 1.164926 -0.118222
v 0.118222 1.164926 -0.157630
v -0.167247 1.179207 0.125435
v -0.125435 1.179207 0.167247
v -0.125435 1.179207 -0.167247
v -0.167247 1.179207 -0.125435
v 0.125435 1.179207 0.167247
v 0.167247 1.179207 0.125435
v 0.167247 1.179207 -0.125435
v 0.125435 1.179207 -0.167247
v -0.167247 1.217290 0.125435
v -0.125435 1.217290 0.167247
v -0.125435 1.217290 -0.167247
v -0.167247 1.217290 -0.125435
v 0.125435 1.217290 0.167247
v 0.167247 1.217290 0.125435
v 0.167247 1.217290 -0.125435
v 0.125435 1.217290 -0.167247
v -0.129488 1.217290 0.097116
v -0.097116 1.217290 0.129488
v -0.097116 1.217290 -0.129488
v -0.129488 1.217290 -0.097116
v 0.097116 1.217290 0.129488
v 0.129488 1.217290 0.097116
v 0.129488 1.217290 -0.097116
v 0.097116 1.217290 -0.129488
v -0.129488 1.250376 0.097116
v -0.097116 1.250376 0.129488
v -0.097116 1.250376 -0.129488
v -0.129488 1.250376 -0.097116
v 0.097116 1.250376 0.129488
v 0.129488 1.250376 0.097116
v 0.129488 1.250376 -0.097116
v 0.097116 1.250376 -0.129488
v -0.167718 1.250376 0.125788
v -0.125788 1.250376 0.167718
v -0.125788 1.250376 -0.167718
v -0.167718 1.250376 -0.125788
v 0.125788 1.250376 0.167718
v 0.167718 1.250376 0.125788
v 0.167718 1.250376 -0.125788
v 0.125788 1.250376 -0.167718
v -0.167718 1.415966 0.125788
v -0.125788 1.415966 0.167718
v -0.125788 1.415966 -0.167718
v -0.167718 1.415966 -0.125788
v 0.125788 1.415966 0.167718
v 0.167718 1.415966 0.125788
v 0.167718 1.415966 -0.125788
v 0.125788 1.415966 -0.167718
v -0.128241 1.462231 0.096181
v -0.096181 1.462231 0.128242
v -0.096181 1.462231 -0.128242
v -0.128241 1.462231 -0.096181
v 0.096181 1.462231 0.128242
v 0.128242 1.462231 0.096181
v 0.128242 1.462231 -0.096181
v 0.096181 1.462231 -0.128242
v -0.247479 -1.075461 0.329972
v -0.329972 -1.075461 0.247479
v -0.329972 -1.075461 -0.247479
v -0.247479 -1.075461 -0.329972
v 0.329972 -1.075461 0.247479
v 0.247479 -1.075461 0.329972
v 0.247479 -1.075461 -0.329972
v 0.329972 -1.075461 -0.247479
v -0.285611 -0.074651 0.380814
v -0.380814 -0.074651 0.285611
v -0.285611 -0.074651 -0.380814
v -0.380814 -0.074651 -0.285611
v 0.380814 -0.074651 -0.285611
v 0.285611 -0.074651 -0.380814
v 0.285611 -0.074651 0.380814
v 0.380814 -0.074651 0.285611
v -0.390331 -0.107333 0.292748
v -0.292748 -0.107333 -0.390331
v 0.390331 -0.107333 -0.292748
v 0.292748 -0.107333 0.390331
v -0.292748 -0.107334 0.390331
v -0.390331 -0.107334 -0.292748
v 0.292748 -0.107334 -0.390331
v 0.390331 -0.107334 0.292748
v -0.292748 -0.042110 0.390331
v -0.390331 -0.042110 -0.292748
v 0.292748 -0.042110 -0.390331
v 0.390331 -0.042110 0.292748
v -0.390331 -0.042110 0.292748
v -0.292748 -0.042110 -0.390331
v 0.390331 -0.042110 -0.292748
v 0.292748 -0.042110 0.390331
v -0.280103 0.604398 0.373470
v -0.373470 0.604398 -0.280103
v 0.280103 0.604398 -0.373470
v 0.373470 0.604398 0.280103
v -0.373470 0.604398 0.280103
v -0.280103 0.604398 -0.373470
v 0.373470 0.604398 -0.280103
v 0.280103 0.604398 0.373470
v -0.389904 -0.025756 0.292428
v -0.292428 -0.025756 -0.389904
v 0.389904 -0.025756 -0.292428
v 0.292428 -0.025756 0.389904
v -0.292428 -0.025756 0.389904
v -0.389904 -0.025756 -0.292428
v 0.292428 -0.025756 -0.389904
v 0.389904 -0.025756 0.292428
vt 0.374700 0.282988
vt 0.378367 0.087835
vt 0.378367 0.282631
vt 0.374700 0.491699
vt 0.378367 0.324500
vt 0.378367 0.491810
vt 0.374700 0.697181
vt 0.378367 0.530981
vt 0.378367 0.697806
vt 0.374700 0.088732
vt 0.378367 0.035006
vt 0.703684 0.735316
vt 0.523822 0.766435
vt 0.523822 0.721407
vt 0.703684 0.504388
vt 0.523822 0.536938
vt 0.523822 0.495523
vt 0.703684 0.271048
vt 0.523822 0.312383
vt 0.523822 0.268204
vt 0.374700 0.930368
vt 0.378367 0.738766
vt 0.378367 0.931755
vt 0.360033 0.327564
vt 0.374700 0.324814
vt 0.360033 0.285670
vt 0.360033 0.530776
vt 0.374700 0.530828
vt 0.360033 0.096427
vt 0.360033 0.491245
vt 0.360033 0.734026
vt 0.374700 0.738047
vt 0.360033 0.693839
vt 0.360033 0.044979
vt 0.374700 0.035939
vt 0.233496 0.306562
vt 0.248561 0.677057
vt 0.254604 0.645834
vt 0.259720 0.507011
vt 0.360033 0.920121
vt 0.260251 0.475200
vt 0.175130 0.152713
vt 0.239442 0.338185
vt 0.188178 0.179571
vt 0.207506 0.343344
vt 0.158097 0.189737
vt 0.200975 0.313367
vt 0.221130 0.639249
vt 0.227591 0.505956
vt 0.214034 0.807267
vt 0.215662 0.669701
vt 0.227090 0.475223
vt 0.149714 0.162775
vt 0.186075 0.800757
vt 0.208581 0.666403
vt 0.220428 0.504206
vt 0.220113 0.477367
vt 0.151329 0.190340
vt 0.143235 0.163803
vt 0.200139 0.343017
vt 0.194580 0.316787
vt 0.213809 0.640008
vt 0.208890 0.504021
vt 0.177469 0.803398
vt 0.197696 0.664118
vt 0.208716 0.478584
vt 0.131836 0.167178
vt 0.188792 0.345068
vt 0.141093 0.194021
vt 0.183668 0.320175
vt 0.202396 0.639064
vt 0.119320 0.207122
vt 0.164945 0.352984
vt 0.158156 0.320893
vt 0.173802 0.663089
vt 0.178303 0.630001
vt 0.183889 0.507207
vt 0.164087 0.800241
vt 0.183420 0.474333
vt 0.109900 0.181813
vt 0.101610 0.184649
vt 0.153781 0.354864
vt 0.108497 0.210249
vt 0.147149 0.323396
vt 0.166932 0.628285
vt 0.172545 0.506898
vt 0.148695 0.781993
vt 0.161750 0.660842
vt 0.172123 0.474710
vt 0.148657 0.501434
vt 0.138893 0.780096
vt 0.137061 0.650261
vt 0.148509 0.479105
vt 0.080742 0.183721
vt 0.129359 0.354102
vt 0.085583 0.209706
vt 0.124813 0.332069
vt 0.142070 0.628021
vt 0.101963 0.622516
vt 0.107599 0.505372
vt 0.110225 0.793581
vt 0.097060 0.645244
vt 0.107426 0.482051
vt 0.027571 0.198644
vt 0.090111 0.365988
vt 0.043134 0.228204
vt 0.085413 0.343143
vt 0.063697 0.373880
vt 0.019021 0.246908
vt 0.057797 0.346478
vt 0.075925 0.614529
vt 0.080189 0.507883
vt 0.050078 0.773951
vt 0.070557 0.641179
vt 0.079811 0.479673
vt 0.000121 0.223804
vt 0.935538 0.321284
vt 0.849104 0.333632
vt 0.836756 0.247197
vt 0.703684 0.777023
vt 0.745464 0.973292
vt 0.703684 0.992712
vt 0.723343 0.316473
vt 0.703684 0.311954
vt 0.723388 0.548934
vt 0.703684 0.543680
vt 0.719061 0.780150
vt 0.725199 0.501030
vt 0.703684 0.014300
vt 0.729016 0.076067
vt 0.703684 0.066448
vt 0.718732 0.731763
vt 0.724401 0.267615
vt 0.813215 0.206644
vt 0.793356 0.067630
vt 0.932370 0.047771
vt 0.516607 0.980196
vt 0.523822 0.984464
vt 0.516607 0.268029
vt 0.509740 0.313265
vt 0.509740 0.269838
vt 0.516607 0.494798
vt 0.509740 0.536457
vt 0.509740 0.495770
vt 0.516607 0.719946
vt 0.509740 0.764534
vt 0.509740 0.720200
vt 0.516607 0.055789
vt 0.523822 0.000121
vt 0.523822 0.053887
vt 0.516607 0.313702
vt 0.516607 0.537584
vt 0.516607 0.766477
vt 0.506417 0.763882
vt 0.506417 0.719634
vt 0.506417 0.536318
vt 0.506417 0.495670
vt 0.506417 0.313549
vt 0.506417 0.270161
vt 0.509740 0.055699
vt 0.516607 0.001464
vt 0.506417 0.980182
vt 0.506417 0.002415
vt 0.506417 0.056512
vt 0.509740 0.001569
vt 0.509740 0.981438
vt 0.030114 0.747617
vt 0.923190 0.234850
vt 0.935538 0.247197
vt 0.923190 0.333632
vt 0.836756 0.321284
vt 0.849104 0.234850
vt 0.745464 0.029024
vt 0.952229 0.067630
vt 0.952229 0.186785
vt 0.932370 0.206644
vt 0.793356 0.186785
vt 0.813215 0.047771
vn 0.0000 0.0261 0.9997
vn 0.9997 0.0261 0.0000
vn 0.0000 0.0261 -0.9997
vn -0.7067 0.0323 0.7067
vn -0.7070 -0.0144 -0.7070
vn 0.7070 -0.0144 -0.7070
vn 0.7070 -0.0144 0.7070
vn -0.9997 0.0261 0.0000
vn 0.9885 0.1512 0.0000
vn 0.6948 0.1859 0.6948
vn 0.0000 0.1512 -0.9885
vn 0.0000 0.1512 0.9885
vn 0.6948 0.1859 -0.6948
vn -0.9885 0.1512 0.0000
vn -0.6948 0.1859 -0.6948
vn -0.6948 0.1859 0.6948
vn 0.5801 0.5719 0.5801
vn -0.5801 0.5719 -0.5801
vn 0.0000 0.4908 -0.8712
vn -0.8712 0.4908 0.0000
vn 0.5801 0.5719 -0.5801
vn -0.5801 0.5719 0.5801
vn 0.8712 0.4908 0.0000
vn 0.0000 0.4908 0.8712
vn 1.0000 0.0000 0.0000
vn 0.0000 0.0000 1.0000
vn 0.7071 0.0000 0.7071
vn -0.7071 0.0000 -0.7071
vn 0.0000 0.0000 -1.0000
vn -1.0000 0.0000 0.0000
vn 0.7071 0.0000 -0.7071
vn -0.7071 0.0000 0.7071
vn -0.8295 -0.5586 0.0000
vn 0.5432 -0.6402 -0.5432
vn -0.5432 -0.6402 0.5432
vn 0.8295 -0.5586 0.0000
vn 0.0000 -0.5586 0.8295
vn 0.5432 -0.6402 0.5432
vn -0.5432 -0.6402 -0.5432
vn 0.0000 -0.5586 -0.8295
vn 0.0000 1.0000 -0.0000
vn 0.0000 -1.0000 0.0000
vn 0.7607 0.6491 0.0000
vn 0.0000 0.6491 0.7607
vn 0.4862 0.7261 0.4862
vn -0.4862 0.7261 -0.4862
vn 0.0000 0.6491 -0.7607
vn -0.7607 0.6491 0.0000
vn 0.4862 0.7261 -0.4862
vn -0.4862 0.7261 0.4862
vn -0.8671 -0.4982 0.0000
vn 0.5763 -0.5795 0.5763
vn 0.5763 -0.5795 -0.5763
vn -0.5763 -0.5795 -0.5763
vn 0.8671 -0.4982 0.0000
vn -0.5763 -0.5795 0.5763
vn 0.0000 -0.4982 -0.8671
vn 0.0000 -0.4982 0.8671
vn -0.9601 0.2796 -0.0000
vn 0.6649 -0.3403 0.6649
vn 0.6649 -0.3403 -0.6649
vn -0.6649 -0.3403 -0.6649
vn -0.6652 0.3390 0.6652
vn 0.0000 0.2796 -0.9601
vn 0.9601 0.2796 0.0000
vn -0.0000 0.2796 0.9601
vn 0.0000 -0.0117 0.9999
vn 0.9999 -0.0117 0.0000
vn 0.0000 -0.0117 -0.9999
vn -0.7070 -0.0144 0.7070
vn -0.9999 -0.0117 0.0000
vn 0.6652 0.3390 0.6652
vn 0.6652 0.3390 -0.6652
vn -0.6652 0.3390 -0.6652
vn -0.7067 0.0323 -0.7067
vn 0.7067 0.0323 -0.7067
vn 0.7067 0.0323 0.7067
vn -0.9598 -0.2807 0.0000
vn -0.6649 -0.3403 0.6649
vn 0.0000 -0.2807 -0.9598
vn 0.9598 -0.2807 -0.0000
vn 0.0000 -0.2807 0.9598
usemtl Material.004
s off
f 11/1/1 129/2/1 136/3/1
f 15/4/2 132/5/2 135/6/2
f 7/7/3 131/8/3 134/9/3
f 4/10/4 133/11/4 129/2/4
f 6/12/5 118/13/5 114/14/5
f 14/15/6 119/16/6 115/17/6
f 10/18/7 120/19/7 116/20/7
f 3/21/8 130/22/8 133/23/8
f 15/4/9 22/24/9 12/25/9
f 12/25/10 21/26/10 11/1/10
f 7/7/11 24/27/11 16/28/11
f 11/1/12 18/29/12 4/10/12
f 16/28/13 23/30/13 15/4/13
f 3/21/14 20/31/14 8/32/14
f 8/32/15 19/33/15 7/7/15
f 4/10/16 17/34/16 3/35/16
f 22/24/17 29/36/17 21/26/17
f 19/33/18 28/37/18 27/38/18
f 24/27/19 27/38/19 32/39/19
f 17/40/20 28/37/20 20/31/20
f 24/27/21 31/41/21 23/30/21
f 18/29/22 25/42/22 17/34/22
f 23/30/23 30/43/23 22/24/23
f 21/26/24 26/44/24 18/29/24
f 31/41/25 38/45/25 30/43/25
f 29/36/26 34/46/26 26/44/26
f 30/43/27 37/47/27 29/36/27
f 28/37/28 35/48/28 27/38/28
f 27/38/29 40/49/29 32/39/29
f 25/50/30 36/51/30 28/37/30
f 32/39/31 39/52/31 31/41/31
f 26/44/32 33/53/32 25/42/32
f 33/54/33 44/55/33 36/51/33
f 39/52/34 48/56/34 47/57/34
f 33/53/35 42/58/35 41/59/35
f 39/52/36 46/60/36 38/45/36
f 37/47/37 42/58/37 34/46/37
f 38/45/38 45/61/38 37/47/38
f 36/51/39 43/62/39 35/48/39
f 35/48/40 48/56/40 40/49/40
f 43/62/29 56/63/29 48/56/29
f 41/64/30 52/65/30 44/55/30
f 48/56/31 55/66/31 47/57/31
f 42/58/32 49/67/32 41/59/32
f 47/57/25 54/68/25 46/60/25
f 45/61/26 50/69/26 42/58/26
f 46/60/27 53/70/27 45/61/27
f 44/55/28 51/71/28 43/62/28
f 53/70/41 58/72/41 50/69/41
f 53/70/41 62/73/41 61/74/41
f 51/71/41 60/75/41 59/76/41
f 51/71/41 64/77/41 56/63/41
f 49/78/41 60/75/41 52/65/41
f 56/63/41 63/79/41 55/66/41
f 50/69/41 57/80/41 49/67/41
f 55/66/41 62/73/41 54/68/41
f 58/72/32 65/81/32 57/80/32
f 63/79/25 70/82/25 62/73/25
f 61/74/26 66/83/26 58/72/26
f 62/73/27 69/84/27 61/74/27
f 60/75/28 67/85/28 59/76/28
f 59/76/29 72/86/29 64/77/29
f 57/87/30 68/88/30 60/75/30
f 64/77/31 71/89/31 63/79/31
f 67/85/42 80/90/42 72/86/42
f 65/91/42 76/92/42 68/88/42
f 72/86/42 79/93/42 71/89/42
f 66/83/42 73/94/42 65/81/42
f 71/89/42 78/95/42 70/82/42
f 69/84/42 74/96/42 66/83/42
f 70/82/42 77/97/42 69/84/42
f 68/88/42 75/98/42 67/85/42
f 76/92/28 83/99/28 75/98/28
f 75/98/29 88/100/29 80/90/29
f 73/101/30 84/102/30 76/92/30
f 80/90/31 87/103/31 79/93/31
f 74/96/32 81/104/32 73/94/32
f 79/93/25 86/105/25 78/95/25
f 77/97/26 82/106/26 74/96/26
f 78/95/27 85/107/27 77/97/27
f 87/103/43 94/108/43 86/105/43
f 85/107/44 90/109/44 82/106/44
f 86/105/45 93/110/45 85/107/45
f 84/102/46 91/111/46 83/99/46
f 88/100/47 91/111/47 96/112/47
f 81/113/48 92/114/48 84/102/48
f 87/103/49 96/112/49 95/115/49
f 82/106/50 89/116/50 81/104/50
f 93/117/41 95/118/41 91/119/41
f 5/120/51 98/121/51 2/122/51
f 10/18/52 101/123/52 9/124/52
f 14/15/53 103/125/53 13/126/53
f 6/12/54 99/127/54 5/120/54
f 9/124/55 104/128/55 14/15/55
f 2/129/56 97/130/56 1/131/56
f 13/126/57 100/132/57 6/12/57
f 1/131/58 102/133/58 10/18/58
f 103/134/42 101/135/42 97/136/42
f 106/137/59 118/13/59 113/138/59
f 111/139/60 124/140/60 128/141/60
f 109/142/61 123/143/61 127/144/61
f 107/145/62 122/146/62 126/147/62
f 105/148/63 113/149/63 117/150/63
f 107/145/64 119/16/64 114/14/64
f 109/142/65 120/19/65 115/17/65
f 111/139/66 117/150/66 116/20/66
f 116/20/67 1/131/67 10/18/67
f 115/17/68 9/124/68 14/15/68
f 114/14/69 13/126/69 6/12/69
f 117/150/70 2/129/70 1/131/70
f 113/138/71 5/120/71 2/122/71
f 116/20/72 112/151/72 111/139/72
f 115/17/73 110/152/73 109/142/73
f 114/14/74 108/153/74 107/145/74
f 126/147/75 142/154/75 138/155/75
f 127/144/76 143/156/76 139/157/76
f 128/141/77 144/158/77 140/159/77
f 106/137/78 122/146/78 108/153/78
f 121/160/79 106/161/79 105/148/79
f 107/145/80 123/143/80 110/152/80
f 109/142/81 124/140/81 112/151/81
f 111/139/82 121/160/82 105/148/82
f 136/3/77 12/25/77 11/1/77
f 135/6/76 16/28/76 15/4/76
f 134/9/75 8/32/75 7/7/75
f 137/162/8 130/22/8 142/154/8
f 129/2/4 137/163/4 141/164/4
f 138/155/3 131/8/3 143/156/3
f 139/157/2 132/5/2 144/158/2
f 140/159/1 129/2/1 141/164/1
f 128/141/1 141/164/1 121/160/1
f 127/144/2 144/158/2 124/140/2
f 126/147/3 143/156/3 123/143/3
f 141/164/4 125/165/4 121/160/4
f 125/166/8 142/154/8 122/146/8
f 140/159/77 132/5/77 136/3/77
f 139/157/76 131/8/76 135/6/76
f 138/155/75 130/22/75 134/9/75
f 11/1/1 4/10/1 129/2/1
f 15/4/2 12/25/2 132/5/2
f 7/7/3 16/28/3 131/8/3
f 4/10/4 3/35/4 133/11/4
f 6/12/5 5/120/5 118/13/5
f 14/15/6 13/126/6 119/16/6
f 10/18/7 9/124/7 120/19/7
f 3/21/8 8/32/8 130/22/8
f 15/4/9 23/30/9 22/24/9
f 12/25/10 22/24/10 21/26/10
f 7/7/11 19/33/11 24/27/11
f 11/1/12 21/26/12 18/29/12
f 16/28/13 24/27/13 23/30/13
f 3/21/14 17/40/14 20/31/14
f 8/32/15 20/31/15 19/33/15
f 4/10/16 18/29/16 17/34/16
f 22/24/17 30/43/17 29/36/17
f 19/33/18 20/31/18 28/37/18
f 24/27/19 19/33/19 27/38/19
f 17/40/20 25/50/20 28/37/20
f 24/27/21 32/39/21 31/41/21
f 18/29/22 26/44/22 25/42/22
f 23/30/23 31/41/23 30/43/23
f 21/26/24 29/36/24 26/44/24
f 31/41/25 39/52/25 38/45/25
f 29/36/26 37/47/26 34/46/26
f 30/43/27 38/45/27 37/47/27
f 28/37/28 36/51/28 35/48/28
f 27/38/29 35/48/29 40/49/29
f 25/50/30 33/54/30 36/51/30
f 32/39/31 40/49/31 39/52/31
f 26/44/32 34/46/32 33/53/32
f 33/54/33 41/64/33 44/55/33
f 39/52/34 40/49/34 48/56/34
f 33/53/35 34/46/35 42/58/35
f 39/52/36 47/57/36 46/60/36
f 37/47/37 45/61/37 42/58/37
f 38/45/38 46/60/38 45/61/38
f 36/51/39 44/55/39 43/62/39
f 35/48/40 43/62/40 48/56/40
f 43/62/29 51/71/29 56/63/29
f 41/64/30 49/78/30 52/65/30
f 48/56/31 56/63/31 55/66/31
f 42/58/32 50/69/32 49/67/32
f 47/57/25 55/66/25 54/68/25
f 45/61/26 53/70/26 50/69/26
f 46/60/27 54/68/27 53/70/27
f 44/55/28 52/65/28 51/71/28
f 53/70/41 61/74/41 58/72/41
f 53/70/41 54/68/41 62/73/41
f 51/71/41 52/65/41 60/75/41
f 51/71/41 59/76/41 64/77/41
f 49/78/41 57/87/41 60/75/41
f 56/63/41 64/77/41 63/79/41
f 50/69/41 58/72/41 57/80/41
f 55/66/41 63/79/41 62/73/41
f 58/72/32 66/83/32 65/81/32
f 63/79/25 71/89/25 70/82/25
f 61/74/26 69/84/26 66/83/26
f 62/73/27 70/82/27 69/84/27
f 60/75/28 68/88/28 67/85/28
f 59/76/29 67/85/29 72/86/29
f 57/87/30 65/91/30 68/88/30
f 64/77/31 72/86/31 71/89/31
f 67/85/42 75/98/42 80/90/42
f 65/91/42 73/101/42 76/92/42
f 72/86/42 80/90/42 79/93/42
f 66/83/42 74/96/42 73/94/42
f 71/89/42 79/93/42 78/95/42
f 69/84/42 77/97/42 74/96/42
f 70/82/42 78/95/42 77/97/42
f 68/88/42 76/92/42 75/98/42
f 76/92/28 84/102/28 83/99/28
f 75/98/29 83/99/29 88/100/29
f 73/101/30 81/113/30 84/102/30
f 80/90/31 88/100/31 87/103/31
f 74/96/32 82/106/32 81/104/32
f 79/93/25 87/103/25 86/105/25
f 77/97/26 85/107/26 82/106/26
f 78/95/27 86/105/27 85/107/27
f 87/103/43 95/115/43 94/108/43
f 85/107/44 93/110/44 90/109/44
f 86/105/45 94/108/45 93/110/45
f 84/102/46 92/114/46 91/111/46
f 88/100/47 83/99/47 91/111/47
f 81/113/48 89/167/48 92/114/48
f 87/103/49 88/100/49 96/112/49
f 82/106/50 90/109/50 89/116/50
f 89/168/41 90/169/41 93/117/41
f 93/117/41 94/170/41 95/118/41
f 95/118/41 96/171/41 91/119/41
f 91/119/41 92/172/41 89/168/41
f 89/168/41 93/117/41 91/119/41
f 5/120/51 99/127/51 98/121/51
f 10/18/52 102/133/52 101/123/52
f 14/15/53 104/128/53 103/125/53
f 6/12/54 100/132/54 99/127/54
f 9/124/55 101/123/55 104/128/55
f 2/129/56 98/173/56 97/130/56
f 13/126/57 103/125/57 100/132/57
f 1/131/58 97/130/58 102/133/58
f 97/136/42 98/174/42 99/175/42
f 99/175/42 100/176/42 103/134/42
f 103/134/42 104/177/42 101/135/42
f 101/135/42 102/178/42 97/136/42
f 97/136/42 99/175/42 103/134/42
f 106/137/59 108/153/59 118/13/59
f 111/139/60 112/151/60 124/140/60
f 109/142/61 110/152/61 123/143/61
f 107/145/62 108/153/62 122/146/62
f 105/148/63 106/161/63 113/149/63
f 107/145/64 110/152/64 119/16/64
f 109/142/65 112/151/65 120/19/65
f 111/139/66 105/148/66 117/150/66
f 116/20/67 117/150/67 1/131/67
f 115/17/68 120/19/68 9/124/68
f 114/14/69 119/16/69 13/126/69
f 117/150/70 113/149/70 2/129/70
f 113/138/71 118/13/71 5/120/71
f 116/20/72 120/19/72 112/151/72
f 115/17/73 119/16/73 110/152/73
f 114/14/74 118/13/74 108/153/74
f 126/147/75 122/146/75 142/154/75
f 127/144/76 123/143/76 143/156/76
f 128/141/77 124/140/77 144/158/77
f 106/137/78 125/166/78 122/146/78
f 121/160/79 125/165/79 106/161/79
f 107/145/80 126/147/80 123/143/80
f 109/142/81 127/144/81 124/140/81
f 111/139/82 128/141/82 121/160/82
f 136/3/77 132/5/77 12/25/77
f 135/6/76 131/8/76 16/28/76
f 134/9/75 130/22/75 8/32/75
f 137/162/8 133/23/8 130/22/8
f 129/2/4 133/11/4 137/163/4
f 138/155/3 134/9/3 131/8/3
f 139/157/2 135/6/2 132/5/2
f 140/159/1 136/3/1 129/2/1
f 128/141/1 140/159/1 141/164/1
f 127/144/2 139/157/2 144/158/2
f 126/147/3 138/155/3 143/156/3
f 141/164/4 137/163/4 125/165/4
f 125/166/8 137/162/8 142/154/8
f 140/159/77 144/158/77 132/5/77
f 139/157/76 143/156/76 131/8/76
f 138/155/75 142/154/75 130/22/75
