# Blender v2.81 (sub 16) OBJ File: 'items 4.blend'
# www.blender.org
mtllib crumpled_paper_1.mtl
o crumpled_paper_1_Cube.014
v -0.098690 -0.053717 -0.202374
v -0.271924 0.250133 -0.157236
v 0.072262 -0.175138 -0.135968
v 0.277649 0.158079 -0.245383
v -0.212339 -0.087515 0.214358
v -0.080571 0.111684 0.146084
v 0.169259 -0.204787 0.163517
v 0.307070 0.048449 0.129876
v -0.033979 -0.219466 -0.250689
v -0.143363 0.135587 -0.217083
v 0.035580 0.192825 -0.082161
v 0.268249 -0.043069 -0.309666
v 0.076117 -0.262513 -0.021564
v 0.302245 0.144866 -0.009249
v 0.133494 -0.051409 0.109715
v -0.097961 -0.075662 0.211269
v 0.239796 0.237315 0.311792
v -0.194415 0.253331 0.201043
v -0.280904 -0.046111 -0.004325
v 0.074826 0.384140 0.110150
v 0.016255 0.145013 -0.221478
v 0.228738 -0.123149 -0.018139
v -0.043779 0.083897 0.340787
v -0.171178 0.150440 0.035668
v -0.144078 -0.219530 -0.057865
v 0.118736 0.307758 0.080514
vt 0.375000 0.000000
vt 0.500000 0.125000
vt 0.375000 0.125000
vt 0.500000 0.000000
vt 0.625000 0.125000
vt 0.625000 0.250000
vt 0.500000 0.250000
vt 0.375000 0.250000
vt 0.500000 0.373264
vt 0.369792 0.369792
vt 0.630208 0.369792
vt 0.666667 0.458333
vt 0.500000 0.493056
vt 0.333333 0.458333
vt 0.368056 0.625000
vt 0.631945 0.625000
vt 0.500000 0.625000
vt 0.666667 0.791667
vt 0.500000 0.756944
vt 0.333333 0.791667
vt 0.500000 0.876736
vt 0.369792 0.880208
vt 0.625000 1.000000
vt 0.500000 1.000000
vt 0.375000 1.000000
vt 0.125000 0.500000
vt 0.248264 0.625000
vt 0.125000 0.625000
vt 0.244792 0.494792
vt 0.244792 0.755208
vt 0.125000 0.750000
vt 0.751736 0.625000
vt 0.755208 0.494792
vt 0.875000 0.625000
vt 0.755208 0.755208
vt 0.625000 0.000000
vt 0.630208 0.880208
vt 0.875000 0.500000
vt 0.875000 0.750000
vn -0.3686 0.1246 -0.9212
vn -0.0646 0.9466 -0.3159
vn -0.1019 0.3071 -0.9462
vn 0.7421 -0.0487 -0.6685
vn 0.5889 -0.6326 -0.5030
vn 0.9623 -0.2658 0.0574
vn 0.3279 -0.6984 0.6362
vn 0.6716 -0.7328 -0.1094
vn 0.3378 0.3807 0.8608
vn 0.4041 -0.6197 0.6728
vn 0.7680 0.6382 -0.0540
vn 0.0874 -0.6455 0.7587
vn -0.8483 0.4039 0.3424
vn 0.6742 0.6658 -0.3195
vn -0.6728 -0.7392 -0.0306
vn -0.7219 -0.2213 -0.6557
vn 0.2476 -0.9585 0.1411
vn -0.2441 -0.8372 0.4894
vn -0.6298 -0.6350 0.4474
vn -0.8524 -0.1909 -0.4868
vn 0.8044 0.5351 -0.2581
vn 0.3029 0.6985 -0.6483
vn 0.5176 0.5514 -0.6542
vn -0.5256 0.6972 0.4875
vn -0.0225 -0.0827 -0.9963
vn 0.2911 0.6789 -0.6741
vn -0.0760 0.9463 -0.3142
vn -0.5088 -0.3041 -0.8054
vn 0.4319 -0.8829 -0.1840
vn 0.9945 -0.0131 -0.1043
vn 0.9451 -0.2523 -0.2076
vn 0.8351 0.3450 0.4285
vn 0.3591 -0.6587 0.6612
vn 0.2689 -0.6168 0.7398
vn -0.4487 0.8689 0.2088
vn -0.6394 0.0636 0.7663
vn -0.9850 0.0453 -0.1666
vn -0.6141 0.4369 0.6573
vn -0.6432 0.4894 0.5889
vn -0.8555 0.5028 -0.1237
vn -0.0554 -0.7944 -0.6049
vn -0.3299 -0.8412 0.4284
vn 0.0950 -0.9722 -0.2139
vn -0.6947 -0.3550 -0.6256
vn 0.7109 0.5894 0.3838
vn 0.1669 0.9853 0.0377
vn 0.2925 0.6474 -0.7038
vn 0.4106 -0.1149 0.9045
usemtl Material.021
s off
f 1/1/1 21/2/1 9/3/1
f 10/4/2 11/5/2 21/2/2
f 21/2/3 4/6/3 12/7/3
f 21/2/4 3/8/4 9/3/4
f 3/8/5 22/9/5 13/10/5
f 12/7/6 14/11/6 22/9/6
f 22/9/7 8/12/7 15/13/7
f 22/9/8 7/14/8 13/10/8
f 15/13/9 16/15/9 7/14/9
f 15/13/10 17/16/10 23/17/10
f 23/17/11 6/18/11 18/19/11
f 23/17/12 5/20/12 16/15/12
f 5/20/13 24/21/13 19/22/13
f 6/18/14 24/21/14 18/19/14
f 24/21/15 2/23/15 10/24/15
f 19/22/16 10/24/16 1/25/16
f 3/26/17 25/27/17 9/28/17
f 13/29/18 16/15/18 25/27/18
f 16/15/19 19/30/19 25/27/19
f 25/27/20 1/31/20 9/28/20
f 8/12/21 26/32/21 17/16/21
f 14/33/22 11/34/22 26/32/22
f 11/34/23 20/35/23 26/32/23
f 26/32/24 6/18/24 17/16/24
f 1/1/25 10/4/25 21/2/25
f 10/4/26 2/36/26 11/5/26
f 21/2/27 11/5/27 4/6/27
f 21/2/28 12/7/28 3/8/28
f 3/8/29 12/7/29 22/9/29
f 12/7/30 4/6/30 14/11/30
f 22/9/31 14/11/31 8/12/31
f 22/9/32 15/13/32 7/14/32
f 15/13/33 23/17/33 16/15/33
f 15/13/34 8/12/34 17/16/34
f 23/17/35 17/16/35 6/18/35
f 23/17/36 18/19/36 5/20/36
f 5/20/37 18/19/37 24/21/37
f 6/18/38 20/37/38 24/21/38
f 24/21/39 20/37/39 2/23/39
f 19/22/40 24/21/40 10/24/40
f 3/26/41 13/29/41 25/27/41
f 13/29/42 7/14/42 16/15/42
f 16/15/43 5/20/43 19/30/43
f 25/27/44 19/30/44 1/31/44
f 8/12/45 14/33/45 26/32/45
f 14/33/46 4/38/46 11/34/46
f 11/34/47 2/39/47 20/35/47
f 26/32/48 20/35/48 6/18/48
