# Blender v2.81 (sub 16) OBJ File: 'items 4.blend'
# www.blender.org
mtllib eaten_apple.mtl
o eaten_apple_Sphere.004
v -0.000000 0.323308 -0.217400
v 0.000036 0.141331 -0.134453
v -0.000000 -0.264886 -0.217500
v 0.188117 0.311680 -0.120305
v 0.115855 0.136522 -0.070486
v 0.180024 -0.263755 -0.116041
v 0.188117 0.282822 0.120652
v 0.111320 0.125826 0.071817
v 0.180024 -0.254618 0.116388
v -0.000000 0.271194 0.217747
v 0.000272 0.121240 0.132831
v -0.000000 -0.247773 0.217847
v -0.000000 -0.222093 0.000173
v 0.060850 0.230502 -0.028124
v -0.188117 0.282822 0.120652
v -0.111008 0.125826 0.071817
v -0.180024 -0.254618 0.116388
v -0.188117 0.311680 -0.120306
v -0.115740 0.136522 -0.070486
v -0.180024 -0.263755 -0.116041
v -0.000000 -0.163750 -0.286555
v 0.227221 -0.174435 -0.146634
v 0.227221 -0.154358 0.146154
v -0.000000 -0.148187 0.273961
v -0.227222 -0.154358 0.146154
v -0.227221 -0.174435 -0.146634
v -0.000000 0.296755 -0.312118
v 0.269820 0.280894 -0.171403
v 0.268226 0.241963 0.172092
v -0.000000 0.226179 0.311781
v -0.268226 0.241963 0.172091
v -0.269820 0.280894 -0.171403
v 0.055196 0.284539 0.011127
v 0.090113 0.284539 0.001767
v 0.046303 0.295817 -0.022048
v 0.081220 0.295817 -0.031407
v 0.057880 0.388152 0.055255
v 0.109860 0.388152 0.041321
v 0.044642 0.404941 0.005870
v 0.096622 0.404941 -0.008064
v 0.087496 0.339766 -0.022140
v 0.098190 0.326204 0.017756
v 0.056199 0.326204 0.029013
v 0.045504 0.339766 -0.010883
v 0.150673 0.349474 -0.109545
v -0.063094 0.349474 -0.052244
v -0.059710 0.388342 -0.029783
v 0.169151 0.388342 -0.091131
v 0.120565 0.445868 -0.211092
v -0.086856 0.366718 -0.173067
v -0.088841 0.476825 -0.138456
v 0.140021 0.508658 -0.231158
v 0.047064 0.275481 -0.026974
v 0.054967 0.265457 0.002511
v 0.086001 0.265457 -0.005808
v 0.078098 0.275481 -0.035293
v 0.017646 0.438142 -0.380679
v -0.017597 0.423272 -0.369550
v -0.030242 0.437867 -0.365346
v 0.012577 0.450543 -0.377393
v 0.046660 0.169069 -0.055439
v 0.051168 0.163397 -0.038753
v 0.068806 0.163397 -0.043461
v 0.064308 0.169069 -0.060147
v -0.000000 0.213163 -0.180115
v 0.155506 0.205148 -0.097020
v 0.152394 0.186096 0.098034
v -0.000000 0.178231 0.179125
v -0.152394 0.186096 0.098034
v -0.155506 0.205148 -0.097020
v 0.000041 -0.095422 -0.202720
v 0.166463 -0.102829 -0.105088
v 0.163493 -0.101633 0.104657
v 0.000070 -0.102103 0.195504
v -0.163199 -0.101633 0.104657
v -0.166226 -0.102829 -0.105088
v 0.001510 0.007037 -0.102482
v 0.087684 0.003349 -0.053615
v 0.085073 -0.000957 0.053452
v 0.001510 -0.003020 0.099561
v -0.082053 -0.000957 0.053452
v -0.084663 0.003349 -0.053615
vt 0.655245 0.567505
vt 0.575445 0.693222
vt 0.495645 0.567505
vt 0.575445 0.190352
vt 0.655245 0.316069
vt 0.495645 0.316069
vt 0.655245 0.553889
vt 0.495645 0.553889
vt 0.655245 0.410501
vt 0.495645 0.441787
vt 0.495645 0.410501
vt 0.415845 0.190352
vt 0.336044 0.316069
vt 0.336044 0.567505
vt 0.336044 0.553889
vt 0.336044 0.441787
vt 0.336044 0.410501
vt 0.415845 0.693222
vt 0.256244 0.190352
vt 0.176444 0.316069
vt 0.176444 0.567505
vt 0.176444 0.553889
vt 0.176444 0.441787
vt 0.176444 0.410501
vt 0.256244 0.693222
vt 0.096644 0.693222
vt 0.016843 0.567505
vt 0.096644 0.190352
vt 0.016843 0.316069
vt 0.016843 0.553889
vt 0.016843 0.410501
vt 0.974446 0.441787
vt 0.814846 0.410501
vt 0.974446 0.410501
vt 0.974446 0.567505
vt 0.894646 0.693222
vt 0.814846 0.567505
vt 0.894646 0.190352
vt 0.974446 0.316069
vt 0.814846 0.316069
vt 0.814846 0.553889
vt 0.974446 0.553889
vt 0.814846 0.441787
vt 0.735046 0.693222
vt 0.735046 0.190352
vt 0.814846 0.335299
vt 0.016843 0.335299
vt 0.336044 0.335299
vt 0.495645 0.335299
vt 0.655245 0.515380
vt 0.814846 0.515380
vt 0.974446 0.515380
vt 0.016843 0.515380
vt 0.176444 0.515380
vt 0.336044 0.515380
vt 0.495645 0.515380
vt 0.945568 0.756478
vt 0.945568 0.963201
vt 0.945568 0.963201
vt 0.945568 0.756478
vt 0.738845 0.963201
vt 0.738845 0.756478
vt 0.945568 0.756478
vt 0.945568 0.963201
vt 0.738845 0.756478
vt 0.738845 0.963201
vt 0.945568 0.963201
vt 0.738845 0.756478
vt 0.738845 0.963201
vt 0.738845 0.963201
vt 0.945568 0.963201
vt 0.945568 0.963201
vt 0.945568 0.963201
vt 0.738845 0.963201
vt 0.945568 0.963201
vt 0.738845 0.963201
vt 0.945568 0.963201
vt 0.738845 0.963201
vt 0.738845 0.963201
vt 0.738845 0.963201
vt 0.738845 0.963201
vt 0.738845 0.756478
vt 0.945568 0.756478
vt 0.945568 0.963201
vt 0.738845 0.963201
vt 0.738845 0.756478
vt 0.945568 0.963201
vt 0.945568 0.756478
vt 0.655245 0.441787
vt 0.016843 0.441787
vt 0.655245 0.375249
vt 0.655245 0.335299
vt 0.974446 0.335299
vt 0.814846 0.375249
vt 0.176444 0.375249
vt 0.176444 0.335299
vt 0.495645 0.375249
vt 0.974446 0.375249
vt 0.016843 0.375249
vt 0.336044 0.375249
vn -0.1959 0.8541 0.4818
vn -0.1020 -0.9761 0.1919
vn 0.1923 0.9456 -0.2622
vn 0.4756 -0.2089 -0.8545
vn -0.2017 -0.9787 0.0385
vn 0.3974 0.9116 0.1052
vn 0.9787 -0.2049 0.0156
vn -0.4800 0.8710 0.1043
vn -0.1032 -0.9878 -0.1165
vn 0.1693 0.8890 0.4256
vn 0.4752 -0.2232 0.8511
vn -0.1631 0.9661 -0.2002
vn 0.1283 0.9830 -0.1309
vn 0.1032 -0.9878 -0.1165
vn -0.1693 0.8890 0.4256
vn -0.4743 -0.2321 0.8492
vn -0.9743 -0.2247 0.0147
vn 0.2694 0.9562 0.1145
vn 0.2017 -0.9787 0.0385
vn -0.3974 0.9116 0.1052
vn -0.4742 -0.2187 -0.8528
vn 0.1486 0.9060 0.3964
vn 0.1020 -0.9761 0.1919
vn -0.1923 0.9456 -0.2622
vn -0.4309 -0.4878 -0.7592
vn -0.8866 -0.4622 0.0182
vn -0.4290 -0.4367 0.7907
vn 0.4290 -0.4367 0.7907
vn 0.8866 -0.4622 0.0182
vn 0.4309 -0.4878 -0.7592
vn -0.2257 -0.8344 -0.5028
vn -0.4732 -0.8775 -0.0782
vn -0.2236 -0.9166 0.3313
vn 0.2236 -0.9166 0.3313
vn 0.4732 -0.8775 -0.0782
vn 0.2257 -0.8344 -0.5028
vn 0.9536 -0.0916 -0.2868
vn 0.0808 0.9501 0.3013
vn 0.9568 -0.0732 -0.2814
vn -0.9693 -0.0732 0.2349
vn -0.2515 0.2378 -0.9382
vn 0.2390 -0.3842 0.8917
vn 0.2386 -0.3879 0.8903
vn 0.1890 0.6836 0.7050
vn -0.9693 -0.0770 0.2337
vn 0.9562 -0.0770 -0.2825
vn 0.7677 -0.3983 -0.5019
vn -0.3642 -0.2355 0.9010
vn -0.1767 -0.7311 -0.6590
vn 0.7056 -0.5482 0.4491
vn 0.3392 -0.9264 -0.1636
vn 0.1374 -0.6977 -0.7031
vn 0.1601 0.7860 0.5971
vn -0.9816 -0.0241 0.1896
vn -0.2506 0.2511 -0.9350
vn -0.9692 -0.0916 0.2286
vn -0.2526 0.2189 -0.9425
vn 0.2371 -0.4022 0.8843
vn -0.3406 0.1083 -0.9340
vn -0.2214 0.9500 -0.2203
vn -0.7438 -0.5253 -0.4134
vn 0.7639 -0.3988 -0.5073
vn -0.0804 -0.9501 -0.3013
vn 0.2394 -0.3713 0.8971
vn 0.9589 -0.0595 -0.2773
vn -0.9686 -0.0613 0.2409
vn 0.3959 -0.5211 -0.7561
vn 0.8294 -0.5585 -0.0155
vn 0.4127 -0.5731 0.7080
vn -0.4112 -0.5759 0.7066
vn -0.8272 -0.5617 -0.0147
vn -0.3959 -0.5216 -0.7558
vn -0.3915 0.7134 -0.5812
vn -0.7473 0.6629 -0.0455
vn -0.2945 0.8241 0.4838
vn 0.2947 0.8238 0.4842
vn 0.7486 0.6615 -0.0454
vn 0.3916 0.7132 -0.5814
vn -0.4124 0.6340 -0.6542
vn -0.7949 0.6067 0.0080
vn -0.3683 0.6495 0.6652
vn 0.3706 0.6433 0.6699
vn 0.8049 0.5933 0.0080
vn 0.4120 0.6342 -0.6543
vn 0.1950 0.9444 -0.2648
vn 0.4673 -0.1999 -0.8612
vn 0.4092 0.9060 0.1085
vn 0.9786 -0.2050 0.0158
vn 0.1705 0.8835 0.4362
vn 0.4766 -0.2219 0.8507
vn -0.1705 0.8835 0.4362
vn -0.4750 -0.2315 0.8490
vn -0.9742 -0.2254 0.0155
vn -0.4092 0.9060 0.1085
vn -0.4662 -0.2097 -0.8595
vn -0.1950 0.9444 -0.2648
vn -0.4342 -0.5079 -0.7439
vn -0.9009 -0.4329 0.0297
vn -0.4303 -0.4431 0.7864
vn 0.4303 -0.4431 0.7864
vn 0.9009 -0.4329 0.0297
vn 0.4342 -0.5079 -0.7439
vn -0.2235 -0.8235 -0.5215
vn -0.5063 -0.8571 -0.0948
vn -0.2277 -0.9147 0.3339
vn 0.2277 -0.9147 0.3339
vn 0.5063 -0.8571 -0.0948
vn 0.2235 -0.8235 -0.5215
vn 0.9536 -0.0917 -0.2868
vn 0.8706 -0.2011 -0.4490
vn -0.3532 -0.4448 0.8230
vn 0.8005 -0.2309 0.5530
vn 0.3278 -0.9323 -0.1528
vn -0.0360 -0.9903 -0.1343
vn 0.1474 0.7651 0.6268
vn -0.9771 -0.0796 0.1971
vn -0.2495 0.2508 -0.9353
vn -0.2799 0.0338 -0.9594
vn -0.3095 0.9450 -0.1058
vn -0.9635 0.0643 -0.2599
vn 0.7596 0.4379 -0.4809
vn 0.2404 -0.3715 0.8968
vn 0.9587 -0.0588 -0.2784
vn -0.9691 -0.0603 0.2393
vn 0.3899 -0.4939 -0.7772
vn 0.8592 -0.5104 -0.0361
vn 0.4050 -0.5826 0.7047
vn -0.4046 -0.5840 0.7037
vn -0.8585 -0.5115 -0.0363
vn -0.3898 -0.4942 -0.7771
vn -0.3902 0.6876 -0.6123
vn -0.6339 0.7734 0.0047
vn -0.2982 0.7871 0.5400
vn 0.2984 0.7864 0.5409
vn 0.6357 0.7720 0.0046
vn 0.3903 0.6869 -0.6131
vn -0.3979 0.6445 -0.6529
vn -0.7666 0.6405 0.0445
vn -0.3603 0.6370 0.6815
vn 0.3627 0.6312 0.6856
vn 0.7771 0.6278 0.0442
vn 0.4053 0.6244 -0.6677
usemtl Material.023
s off
f 1/1/1 14/2/1 4/3/1
f 13/4/2 3/5/2 6/6/2
f 27/7/3 4/3/3 28/8/3
f 77/9/4 5/10/4 78/11/4
f 13/12/5 6/6/5 9/13/5
f 28/8/6 7/14/6 29/15/6
f 78/11/7 8/16/7 79/17/7
f 4/3/8 14/18/8 7/14/8
f 13/19/9 9/13/9 12/20/9
f 29/15/10 10/21/10 30/22/10
f 79/17/11 11/23/11 80/24/11
f 7/14/12 14/25/12 10/21/12
f 10/21/13 14/26/13 15/27/13
f 13/28/14 12/20/14 17/29/14
f 10/21/15 31/30/15 30/22/15
f 11/23/16 81/31/16 80/24/16
f 16/32/17 82/33/17 81/34/17
f 15/35/18 14/36/18 18/37/18
f 13/38/19 17/39/19 20/40/19
f 15/35/20 32/41/20 31/42/20
f 19/43/21 77/9/21 82/33/21
f 18/37/22 14/44/22 1/1/22
f 13/45/23 20/40/23 3/5/23
f 18/37/24 27/7/24 32/41/24
f 26/46/25 3/5/25 20/40/25
f 17/39/26 26/46/26 20/40/26
f 12/20/27 25/47/27 17/29/27
f 23/48/28 12/20/28 9/13/28
f 22/49/29 9/13/29 6/6/29
f 3/5/30 22/49/30 6/6/30
f 32/41/31 65/50/31 70/51/31
f 31/42/32 70/51/32 69/52/32
f 30/22/33 69/53/33 68/54/33
f 67/55/34 30/22/34 68/54/34
f 66/56/35 29/15/35 67/55/35
f 65/50/36 28/8/36 66/56/36
f 34/57/37 56/58/37 36/59/37
f 38/60/38 39/61/38 37/62/38
f 42/63/39 40/64/39 38/60/39
f 43/65/40 39/61/40 44/66/40
f 41/67/41 39/61/41 40/64/41
f 43/65/42 38/60/42 37/62/42
f 34/57/43 43/65/43 33/68/43
f 41/67/44 47/69/44 44/66/44
f 33/68/45 44/66/45 35/70/45
f 34/57/46 41/67/46 42/63/46
f 48/71/47 49/72/47 52/73/47
f 44/66/48 46/74/48 35/70/48
f 35/70/49 45/75/49 36/59/49
f 41/67/50 45/75/50 48/71/50
f 49/72/51 58/76/51 57/77/51
f 45/75/52 50/78/52 49/72/52
f 48/71/53 51/79/53 47/69/53
f 47/69/54 50/78/54 46/74/54
f 56/58/55 61/80/55 53/81/55
f 33/68/56 53/81/56 54/82/56
f 36/59/57 53/81/57 35/70/57
f 33/68/58 55/83/58 34/57/58
f 58/76/59 60/84/59 57/77/59
f 52/73/60 59/85/60 51/79/60
f 50/78/61 59/85/61 58/76/61
f 49/72/62 60/84/62 52/73/62
f 62/86/63 64/87/63 63/88/63
f 55/83/64 62/86/64 63/88/64
f 55/83/65 64/87/65 56/58/65
f 54/82/66 61/80/66 62/86/66
f 2/89/67 66/56/67 5/10/67
f 5/10/68 67/55/68 8/16/68
f 8/16/69 68/54/69 11/23/69
f 68/54/70 16/90/70 11/23/70
f 69/52/71 19/43/71 16/32/71
f 70/51/72 2/89/72 19/43/72
f 26/46/73 71/91/73 21/92/73
f 25/93/74 76/94/74 26/46/74
f 74/95/75 25/47/75 24/96/75
f 23/48/76 74/95/76 24/96/76
f 72/97/77 23/48/77 22/49/77
f 71/91/78 22/49/78 21/92/78
f 82/33/79 71/91/79 76/94/79
f 75/98/80 82/33/80 76/94/80
f 80/24/81 75/99/81 74/95/81
f 73/100/82 80/24/82 74/95/82
f 78/11/83 73/100/83 72/97/83
f 77/9/84 72/97/84 71/91/84
f 27/7/85 1/1/85 4/3/85
f 77/9/86 2/89/86 5/10/86
f 28/8/87 4/3/87 7/14/87
f 78/11/88 5/10/88 8/16/88
f 29/15/89 7/14/89 10/21/89
f 79/17/90 8/16/90 11/23/90
f 10/21/91 15/27/91 31/30/91
f 11/23/92 16/90/92 81/31/92
f 16/32/93 19/43/93 82/33/93
f 15/35/94 18/37/94 32/41/94
f 19/43/95 2/89/95 77/9/95
f 18/37/96 1/1/96 27/7/96
f 26/46/97 21/92/97 3/5/97
f 17/39/98 25/93/98 26/46/98
f 12/20/99 24/96/99 25/47/99
f 23/48/100 24/96/100 12/20/100
f 22/49/101 23/48/101 9/13/101
f 3/5/102 21/92/102 22/49/102
f 32/41/103 27/7/103 65/50/103
f 31/42/104 32/41/104 70/51/104
f 30/22/105 31/30/105 69/53/105
f 67/55/106 29/15/106 30/22/106
f 66/56/107 28/8/107 29/15/107
f 65/50/108 27/7/108 28/8/108
f 34/57/109 55/83/109 56/58/109
f 38/60/38 40/64/38 39/61/38
f 42/63/39 41/67/39 40/64/39
f 43/65/40 37/62/40 39/61/40
f 41/67/41 44/66/41 39/61/41
f 43/65/42 42/63/42 38/60/42
f 34/57/43 42/63/43 43/65/43
f 41/67/44 48/71/44 47/69/44
f 33/68/45 43/65/45 44/66/45
f 34/57/46 36/59/46 41/67/46
f 48/71/110 45/75/110 49/72/110
f 44/66/111 47/69/111 46/74/111
f 35/70/49 46/74/49 45/75/49
f 41/67/112 36/59/112 45/75/112
f 49/72/113 50/78/113 58/76/113
f 45/75/114 46/74/114 50/78/114
f 48/71/115 52/73/115 51/79/115
f 47/69/116 51/79/116 50/78/116
f 56/58/117 64/87/117 61/80/117
f 33/68/56 35/70/56 53/81/56
f 36/59/57 56/58/57 53/81/57
f 33/68/58 54/82/58 55/83/58
f 58/76/118 59/85/118 60/84/118
f 52/73/119 60/84/119 59/85/119
f 50/78/120 51/79/120 59/85/120
f 49/72/121 57/77/121 60/84/121
f 62/86/63 61/80/63 64/87/63
f 55/83/122 54/82/122 62/86/122
f 55/83/123 63/88/123 64/87/123
f 54/82/124 53/81/124 61/80/124
f 2/89/125 65/50/125 66/56/125
f 5/10/126 66/56/126 67/55/126
f 8/16/127 67/55/127 68/54/127
f 68/54/128 69/53/128 16/90/128
f 69/52/129 70/51/129 19/43/129
f 70/51/130 65/50/130 2/89/130
f 26/46/131 76/94/131 71/91/131
f 25/93/132 75/98/132 76/94/132
f 74/95/133 75/99/133 25/47/133
f 23/48/134 73/100/134 74/95/134
f 72/97/135 73/100/135 23/48/135
f 71/91/136 72/97/136 22/49/136
f 82/33/137 77/9/137 71/91/137
f 75/98/138 81/34/138 82/33/138
f 80/24/139 81/31/139 75/99/139
f 73/100/140 79/17/140 80/24/140
f 78/11/141 79/17/141 73/100/141
f 77/9/142 78/11/142 72/97/142
