# Blender v2.81 (sub 16) OBJ File: 'items 4.blend'
# www.blender.org
mtllib orange.mtl
o orange_Sphere.002
v 0.001562 0.229010 -0.194031
v 0.000000 -0.000000 -0.348593
v -0.000000 -0.234631 -0.225664
v 0.189097 0.229010 -0.130789
v 0.324974 -0.000000 -0.187624
v 0.195431 -0.234631 -0.112832
v 0.189097 0.229010 0.085758
v 0.324974 -0.000000 0.187624
v 0.195431 -0.234631 0.112832
v 0.001562 0.229010 0.194031
v -0.000000 -0.000000 0.375248
v -0.000000 -0.234631 0.225664
v -0.000000 -0.271121 0.000000
v -0.000000 0.271121 0.000000
v -0.185972 0.229010 0.085757
v -0.324974 -0.000000 0.187624
v -0.195431 -0.234631 0.112832
v -0.185972 0.229010 -0.130789
v -0.324974 -0.000000 -0.187624
v -0.195431 -0.234631 -0.112832
v 0.000000 -0.281679 -0.048158
v 0.000000 0.281679 -0.048158
v 0.041706 -0.281679 -0.024079
v 0.041706 0.281679 -0.024079
v 0.041706 -0.281679 0.024079
v 0.041706 0.281679 0.024079
v -0.000000 -0.281679 0.048158
v -0.000000 0.281679 0.048158
v -0.041706 -0.281679 0.024079
v -0.041706 0.281679 0.024079
v -0.041706 -0.281679 -0.024079
v -0.041706 0.281679 -0.024079
v 0.001271 0.186352 -0.267492
v 0.248793 0.186352 -0.161228
v 0.248793 0.186352 0.124585
v 0.001271 0.186352 0.267492
v -0.246251 0.186352 0.124585
v -0.246250 0.186352 -0.161228
v 0.000000 -0.152952 -0.303601
v 0.262926 -0.152952 -0.151800
v 0.262926 -0.152952 0.151800
v -0.000000 -0.152952 0.303601
v -0.262926 -0.152952 0.151800
v -0.262926 -0.152952 -0.151800
vt 0.660639 0.519299
vt 0.500000 0.544829
vt 0.500000 0.519299
vt 0.660639 0.407773
vt 0.500000 0.318428
vt 0.660639 0.318428
vt 0.660639 0.544829
vt 0.580319 0.681886
vt 0.580319 0.133660
vt 0.660639 0.270716
vt 0.500000 0.270716
vt 0.500000 0.407773
vt 0.339361 0.318428
vt 0.419681 0.681886
vt 0.339361 0.544829
vt 0.419681 0.133660
vt 0.339361 0.270716
vt 0.339361 0.519299
vt 0.178723 0.407773
vt 0.178723 0.318428
vt 0.259042 0.681886
vt 0.178723 0.544829
vt 0.259042 0.133660
vt 0.178723 0.270716
vt 0.178723 0.519299
vt 0.018084 0.519299
vt 0.018084 0.318428
vt 0.098403 0.681886
vt 0.018084 0.544829
vt 0.098403 0.133660
vt 0.018084 0.270716
vt 0.901597 0.133660
vt 0.981916 0.270716
vt 0.821277 0.270716
vt 0.981916 0.544829
vt 0.821277 0.519299
vt 0.981916 0.519299
vt 0.981916 0.407773
vt 0.821277 0.318428
vt 0.981916 0.318428
vt 0.901597 0.681886
vt 0.821277 0.544829
vt 0.740958 0.133660
vt 0.740958 0.681886
vt 0.975697 0.886399
vt 0.943790 0.790677
vt 0.975697 0.790677
vt 0.943790 0.886399
vt 0.911883 0.790677
vt 0.911883 0.886399
vt 0.879976 0.790677
vt 0.879976 0.886399
vt 0.848068 0.790677
vt 0.577212 0.793818
vt 0.614232 0.815191
vt 0.577212 0.879310
vt 0.848068 0.886399
vt 0.816161 0.790677
vt 0.816161 0.886399
vt 0.784254 0.790677
vt 0.666267 0.793818
vt 0.629248 0.815191
vt 0.629248 0.857937
vt 0.821277 0.407773
vt 0.018084 0.407773
vt 0.339361 0.407773
vt 0.614232 0.857937
vt 0.540193 0.857937
vt 0.540193 0.815191
vt 0.784254 0.886399
vt 0.666267 0.879310
vt 0.703286 0.857937
vt 0.703286 0.815191
vn 0.2516 0.7702 -0.5860
vn 0.4845 -0.2469 -0.8392
vn 0.0712 0.9749 -0.2110
vn 0.0918 -0.9830 -0.1590
vn 0.9267 -0.3759 0.0000
vn 0.2174 0.9761 0.0000
vn 0.1835 -0.9830 0.0000
vn 0.5814 0.8136 0.0000
vn 0.4633 -0.3759 0.8025
vn 0.1210 0.9703 0.2096
vn 0.0918 -0.9830 0.1590
vn 0.2789 0.8300 0.4831
vn -0.2780 0.8312 0.4815
vn -0.4633 -0.3759 0.8025
vn -0.1221 0.9697 0.2114
vn -0.0918 -0.9830 0.1590
vn -0.1835 -0.9830 -0.0000
vn -0.5777 0.8163 -0.0000
vn -0.9267 -0.3759 -0.0000
vn -0.2208 0.9753 0.0000
vn -0.0918 -0.9830 -0.1590
vn -0.2509 0.7716 -0.5845
vn -0.4845 -0.2469 -0.8392
vn -0.0715 0.9746 -0.2121
vn 0.5000 0.0000 -0.8660
vn 1.0000 0.0000 0.0000
vn 0.5000 0.0000 0.8660
vn -0.5000 0.0000 0.8660
vn 0.0000 1.0000 0.0000
vn -1.0000 0.0000 0.0000
vn -0.5000 0.0000 -0.8660
vn 0.0000 -1.0000 0.0000
vn -0.4234 0.3000 -0.8548
vn -0.9212 0.3891 -0.0000
vn -0.4465 0.4502 0.7733
vn 0.4477 0.4453 0.7754
vn 0.9256 0.3784 0.0000
vn 0.4242 0.2947 -0.8563
vn -0.3854 -0.6370 -0.6676
vn -0.7709 -0.6370 -0.0000
vn -0.3854 -0.6370 0.6676
vn 0.3854 -0.6370 0.6676
vn 0.7709 -0.6370 0.0000
vn 0.3854 -0.6370 -0.6676
vn 0.1671 0.8523 -0.4956
vn 0.4135 -0.3633 -0.8349
vn -0.1668 0.8529 -0.4946
vn -0.4135 -0.3633 -0.8349
vn -0.3659 0.3735 -0.8524
vn 0.3666 0.3692 -0.8540
usemtl Material.010
s off
f 33/1/1 4/2/1 34/3/1
f 2/4/2 40/5/2 39/6/2
f 1/7/3 14/8/3 4/2/3
f 13/9/4 3/10/4 6/11/4
f 5/12/5 41/13/5 40/5/5
f 4/2/6 14/14/6 7/15/6
f 13/16/7 6/11/7 9/17/7
f 34/3/8 7/15/8 35/18/8
f 41/13/9 11/19/9 42/20/9
f 7/15/10 14/21/10 10/22/10
f 13/23/11 9/17/11 12/24/11
f 35/18/12 10/22/12 36/25/12
f 10/22/13 37/26/13 36/25/13
f 11/19/14 43/27/14 42/20/14
f 10/22/15 14/28/15 15/29/15
f 13/30/16 12/24/16 17/31/16
f 13/32/17 17/33/17 20/34/17
f 15/35/18 38/36/18 37/37/18
f 16/38/19 44/39/19 43/40/19
f 15/35/20 14/41/20 18/42/20
f 13/43/21 20/34/21 3/10/21
f 18/42/22 33/1/22 38/36/22
f 44/39/23 2/4/23 39/6/23
f 18/42/24 14/44/24 1/7/24
f 22/45/25 23/46/25 21/47/25
f 24/48/26 25/49/26 23/46/26
f 26/50/27 27/51/27 25/49/27
f 28/52/28 29/53/28 27/51/28
f 28/54/29 26/55/29 22/56/29
f 30/57/30 31/58/30 29/53/30
f 32/59/31 21/60/31 31/58/31
f 27/61/32 29/62/32 31/63/32
f 38/36/33 2/4/33 19/64/33
f 37/37/34 19/64/34 16/38/34
f 36/25/35 16/65/35 11/19/35
f 8/66/36 36/25/36 11/19/36
f 5/12/37 35/18/37 8/66/37
f 2/4/38 34/3/38 5/12/38
f 44/39/39 3/10/39 20/34/39
f 43/40/40 20/34/40 17/33/40
f 12/24/41 43/27/41 17/31/41
f 41/13/42 12/24/42 9/17/42
f 40/5/43 9/17/43 6/11/43
f 39/6/44 6/11/44 3/10/44
f 33/1/45 1/7/45 4/2/45
f 2/4/46 5/12/46 40/5/46
f 5/12/5 8/66/5 41/13/5
f 34/3/8 4/2/8 7/15/8
f 41/13/9 8/66/9 11/19/9
f 35/18/12 7/15/12 10/22/12
f 10/22/13 15/29/13 37/26/13
f 11/19/14 16/65/14 43/27/14
f 15/35/18 18/42/18 38/36/18
f 16/38/19 19/64/19 44/39/19
f 18/42/47 1/7/47 33/1/47
f 44/39/48 19/64/48 2/4/48
f 22/45/25 24/48/25 23/46/25
f 24/48/26 26/50/26 25/49/26
f 26/50/27 28/52/27 27/51/27
f 28/52/28 30/57/28 29/53/28
f 26/55/29 24/67/29 22/56/29
f 22/56/29 32/68/29 30/69/29
f 30/69/29 28/54/29 22/56/29
f 30/57/30 32/59/30 31/58/30
f 32/59/31 22/70/31 21/60/31
f 31/63/32 21/71/32 27/61/32
f 21/71/32 23/72/32 27/61/32
f 23/72/32 25/73/32 27/61/32
f 38/36/49 33/1/49 2/4/49
f 37/37/34 38/36/34 19/64/34
f 36/25/35 37/26/35 16/65/35
f 8/66/36 35/18/36 36/25/36
f 5/12/37 34/3/37 35/18/37
f 2/4/50 33/1/50 34/3/50
f 44/39/39 39/6/39 3/10/39
f 43/40/40 44/39/40 20/34/40
f 12/24/41 42/20/41 43/27/41
f 41/13/42 42/20/42 12/24/42
f 40/5/43 41/13/43 9/17/43
f 39/6/44 40/5/44 6/11/44
