# Blender v2.81 (sub 16) OBJ File: 'more items.blend'
# www.blender.org
mtllib starbucks.mtl
o starbucks_Cylinder.004
v 0.000000 -1.165818 -0.386076
v 0.000000 0.528013 -0.528013
v 0.226930 -1.165818 -0.312342
v 0.310358 0.528013 -0.427171
v 0.367180 -1.165818 -0.119304
v 0.502170 0.528013 -0.163165
v 0.367180 -1.165818 0.119304
v 0.502170 0.528013 0.163165
v 0.226930 -1.165818 0.312342
v 0.310358 0.528013 0.427171
v -0.000000 -1.165818 0.386076
v -0.000000 0.528013 0.528013
v -0.226930 -1.165818 0.312342
v -0.310358 0.528013 0.427171
v -0.367180 -1.165818 0.119304
v -0.502170 0.528013 0.163165
v -0.367180 -1.165818 -0.119304
v -0.502170 0.528013 -0.163165
v -0.226930 -1.165818 -0.312342
v -0.310358 0.528013 -0.427172
v 0.000000 0.528013 -0.598617
v 0.351858 0.528013 -0.484291
v 0.569318 0.528013 -0.184983
v 0.569318 0.528013 0.184983
v 0.351858 0.528013 0.484291
v -0.000000 0.528013 0.598617
v -0.351858 0.528013 0.484291
v -0.569318 0.528013 0.184983
v -0.569318 0.528013 -0.184983
v -0.351858 0.528013 -0.484291
v 0.000000 0.693727 -0.598617
v 0.351858 0.693727 -0.484291
v 0.569318 0.693727 -0.184983
v 0.569318 0.693727 0.184983
v 0.351858 0.693727 0.484291
v -0.000000 0.693727 0.598617
v -0.351858 0.693727 0.484291
v -0.569318 0.693727 0.184983
v -0.569318 0.693727 -0.184983
v -0.351858 0.693727 -0.484291
v 0.000000 0.693727 -0.492035
v 0.289211 0.693727 -0.398064
v 0.467953 0.693727 -0.152047
v 0.467953 0.693727 0.152047
v 0.289211 0.693727 0.398064
v -0.000000 0.693727 0.492035
v -0.289211 0.693727 0.398064
v -0.467953 0.693727 0.152047
v -0.467953 0.693727 -0.152047
v -0.289211 0.693727 -0.398064
v 0.000000 0.878593 -0.468459
v 0.275353 0.878593 -0.378992
v 0.445531 0.878593 -0.144762
v 0.445531 0.878593 0.144762
v 0.275353 0.878593 0.378992
v -0.000000 0.878593 0.468459
v -0.275354 0.878593 0.378992
v -0.445531 0.878593 0.144762
v -0.445531 0.878593 -0.144762
v -0.275353 0.878593 -0.378992
v 0.000000 -0.318903 -0.457044
v 0.268644 -0.318903 -0.369757
v 0.434675 -0.318903 -0.141234
v 0.434675 -0.318903 0.141235
v 0.268644 -0.318903 0.369757
v -0.000000 -0.318903 0.457044
v -0.268644 -0.318903 0.369757
v -0.434675 -0.318903 0.141235
v -0.434675 -0.318903 -0.141235
v -0.268644 -0.318903 -0.369757
v 0.000000 0.377666 -0.515414
v 0.302953 0.377666 -0.416979
v 0.490188 0.377666 -0.159272
v 0.490188 0.377666 0.159272
v 0.302953 0.377666 0.416979
v -0.000000 0.377666 0.515414
v -0.302953 0.377666 0.416979
v -0.490188 0.377666 0.159272
v -0.490188 0.377666 -0.159272
v -0.302953 0.377666 -0.416979
v 0.318900 0.369236 -0.438928
v 0.515991 0.369236 -0.167656
v 0.515991 0.369236 0.167656
v 0.318900 0.369236 0.438928
v -0.000000 0.369236 0.542545
v -0.318900 0.369236 0.438928
v -0.515991 0.369236 0.167656
v -0.515991 0.369236 -0.167656
v -0.318900 0.369236 -0.438928
v -0.000000 0.369236 -0.542545
v 0.286783 -0.306802 -0.394722
v 0.464024 -0.306802 -0.150771
v 0.464024 -0.306802 0.150771
v 0.286783 -0.306802 0.394723
v -0.000000 -0.306802 0.487904
v -0.286783 -0.306802 0.394722
v -0.464024 -0.306802 0.150771
v -0.464024 -0.306802 -0.150771
v -0.286783 -0.306802 -0.394723
v 0.000000 -0.306802 -0.487904
vt 0.930602 0.922666
vt 0.920609 0.949414
vt 0.918740 0.923711
vt 0.932575 0.948686
vt 0.920916 0.975251
vt 0.928263 0.700874
vt 0.914012 0.731646
vt 0.913896 0.701300
vt 0.927946 0.731747
vt 0.913500 0.760660
vt 0.926585 0.760735
vt 0.913172 0.788847
vt 0.925844 0.816223
vt 0.913304 0.816580
vt 0.913950 0.843932
vt 0.926314 0.843342
vt 0.915107 0.870917
vt 0.928760 0.896524
vt 0.932561 0.869967
vt 0.933958 0.896300
vt 0.927299 0.870104
vt 0.916742 0.897524
vt 0.935750 0.922395
vt 0.931644 0.843304
vt 0.931400 0.788906
vt 0.931244 0.816292
vt 0.925917 0.788723
vt 0.932211 0.761052
vt 0.934100 0.732139
vt 0.937569 0.948566
vt 0.932532 0.975524
vt 0.937649 0.977288
vt 0.944349 0.842488
vt 0.945483 0.761009
vt 0.949796 0.947118
vt 0.945092 0.868917
vt 0.944470 0.788591
vt 0.953467 0.977114
vt 0.946322 0.895032
vt 0.944127 0.815720
vt 0.935288 0.698827
vt 0.947576 0.732682
vt 0.947969 0.920928
vt 0.954058 0.761724
vt 0.958397 0.946411
vt 0.953280 0.868864
vt 0.952955 0.789062
vt 0.962690 0.972797
vt 0.954429 0.894823
vt 0.952511 0.816001
vt 0.952631 0.701163
vt 0.955949 0.733884
vt 0.956074 0.920558
vt 0.952634 0.842597
vt 0.971895 0.919628
vt 0.974256 0.944774
vt 0.969356 0.868681
vt 0.969569 0.789927
vt 0.978089 0.969710
vt 0.970336 0.894301
vt 0.968959 0.816482
vt 0.960884 0.705691
vt 0.973305 0.736383
vt 0.968898 0.842741
vt 0.970852 0.763152
vt 0.808995 0.693444
vt 0.684580 0.603052
vt 0.885887 0.456794
vt 0.706988 0.852373
vt 0.848797 0.852373
vt 0.821714 0.935727
vt 0.857678 0.136740
vt 0.940866 0.115075
vt 0.936403 0.149470
vt 0.854503 0.177676
vt 0.933720 0.184050
vt 0.853443 0.218722
vt 0.932825 0.218722
vt 0.854503 0.259767
vt 0.933720 0.253394
vt 0.857678 0.300703
vt 0.936403 0.287974
vt 0.862962 0.341421
vt 0.940866 0.322369
vt 0.870339 0.381812
vt 0.947097 0.356488
vt 0.879790 0.421769
vt 0.955081 0.390240
vt 0.870339 0.055631
vt 0.955081 0.047203
vt 0.947097 0.080955
vt 0.862962 0.096022
vt 0.143743 0.305195
vt 0.154678 0.214910
vt 0.154678 0.305685
vt 0.138830 0.396075
vt 0.154678 0.396359
vt 0.136683 0.486991
vt 0.154678 0.487024
vt 0.137494 0.577927
vt 0.154678 0.577698
vt 0.154678 0.668508
vt 0.154678 0.760208
vt 0.141296 0.668997
vt 0.155785 0.856309
vt 0.154678 0.855936
vt 0.154068 0.962867
vt 0.154678 0.966049
vt 0.155985 0.124265
vt 0.154678 0.027855
vt 0.154678 0.124166
vt 0.150576 0.214405
vt 0.350587 0.151015
vt 0.350587 0.239696
vt 0.350587 0.054126
vt 0.350587 0.833292
vt 0.350587 0.916223
vt 0.350587 0.749663
vt 0.350587 0.665022
vt 0.350587 0.580247
vt 0.350587 0.495406
vt 0.350587 0.410512
vt 0.350587 0.325468
vt 0.381921 0.326124
vt 0.389865 0.240817
vt 0.377183 0.410828
vt 0.375284 0.495401
vt 0.376201 0.579911
vt 0.380102 0.664302
vt 0.387740 0.748353
vt 0.401838 0.830808
vt 0.431771 0.910179
vt 0.431771 0.060904
vt 0.403043 0.153293
vt 0.978089 0.709447
vt 0.933409 0.603052
vt 0.885887 0.668460
vt 0.732102 0.668460
vt 0.684580 0.522202
vt 0.732103 0.456794
vt 0.808995 0.431810
vt 0.933409 0.522202
vt 0.777893 0.949965
vt 0.734071 0.935727
vt 0.706988 0.898450
vt 0.734071 0.815097
vt 0.777893 0.800858
vt 0.821714 0.815097
vt 0.848797 0.898450
vt 0.879790 0.015674
vt 0.147916 0.760893
vt 0.148616 0.030939
vn 0.3080 -0.0794 -0.9481
vn 0.8065 -0.0794 -0.5859
vn 0.9968 -0.0794 0.0000
vn 0.8065 -0.0794 0.5859
vn 0.3080 -0.0794 0.9481
vn -0.3080 -0.0794 0.9481
vn -0.8065 -0.0794 0.5859
vn -0.9968 -0.0794 0.0000
vn 0.0000 -1.0000 0.0000
vn -0.8065 -0.0794 -0.5859
vn -0.3080 -0.0794 -0.9481
vn -0.8090 0.0000 0.5878
vn 0.8090 0.0000 0.5878
vn 0.3090 0.0000 -0.9511
vn -1.0000 0.0000 0.0000
vn 0.3090 0.0000 0.9511
vn 0.8090 0.0000 -0.5878
vn -0.8090 0.0000 -0.5878
vn -0.3090 0.0000 0.9511
vn 1.0000 0.0000 0.0000
vn -0.3090 0.0000 -0.9511
vn 0.0000 1.0000 0.0000
vn 0.3068 0.1204 -0.9441
vn -0.9927 0.1204 0.0000
vn 0.3068 0.1204 0.9441
vn 0.8031 0.1204 -0.5835
vn -0.8031 0.1204 -0.5835
vn -0.3068 0.1204 0.9441
vn 0.9927 0.1204 0.0000
vn -0.3068 0.1204 -0.9441
vn -0.8031 0.1204 0.5835
vn 0.8031 0.1204 0.5835
vn -0.0960 0.9506 -0.2954
vn -0.2512 0.9506 -0.1825
vn -0.3106 0.9506 0.0000
vn -0.2512 0.9506 0.1825
vn -0.0960 0.9506 0.2954
vn 0.0960 0.9506 0.2954
vn 0.2512 0.9506 0.1825
vn 0.3106 0.9506 0.0000
vn 0.2512 0.9506 -0.1825
vn 0.0960 0.9506 -0.2954
vn 0.3081 -0.0766 -0.9483
vn 0.8066 -0.0766 -0.5861
vn 0.9971 -0.0766 0.0000
vn 0.8066 -0.0766 0.5861
vn 0.3081 -0.0766 0.9483
vn -0.3081 -0.0766 0.9483
vn -0.8066 -0.0766 0.5861
vn -0.9971 -0.0766 0.0000
vn -0.8066 -0.0766 -0.5861
vn -0.3081 -0.0766 -0.9483
vn -0.1178 -0.9245 -0.3625
vn -0.3084 -0.9245 -0.2240
vn -0.3812 -0.9245 0.0000
vn -0.3084 -0.9245 0.2241
vn -0.1178 -0.9245 0.3625
vn 0.1178 -0.9245 0.3625
vn 0.3084 -0.9245 0.2240
vn 0.3812 -0.9245 0.0000
vn 0.3084 -0.9245 -0.2240
vn 0.1178 -0.9245 -0.3625
vn -0.3084 -0.9245 0.2240
usemtl Material.005
s off
f 2/1/1 72/2/1 71/3/1
f 4/4/2 73/5/2 72/2/2
f 6/6/3 74/7/3 73/8/3
f 8/9/4 75/10/4 74/7/4
f 10/11/5 76/12/5 75/10/5
f 76/12/6 14/13/6 77/14/6
f 14/13/7 78/15/7 77/14/7
f 16/16/8 79/17/8 78/15/8
f 20/18/9 29/19/9 30/20/9
f 18/21/10 80/22/10 79/17/10
f 20/18/11 71/3/11 80/22/11
f 20/18/9 21/23/9 2/1/9
f 16/16/9 29/19/9 18/21/9
f 14/13/9 28/24/9 16/16/9
f 14/13/9 26/25/9 27/26/9
f 12/27/9 25/28/9 26/25/9
f 10/11/9 24/29/9 25/28/9
f 2/1/9 22/30/9 4/4/9
f 6/6/9 24/29/9 8/9/9
f 6/31/9 22/30/9 23/32/9
f 27/26/12 38/33/12 28/24/12
f 24/29/13 35/34/13 25/28/13
f 21/23/14 32/35/14 22/30/14
f 28/24/15 39/36/15 29/19/15
f 25/28/16 36/37/16 26/25/16
f 22/30/17 33/38/17 23/32/17
f 29/19/18 40/39/18 30/20/18
f 26/25/19 37/40/19 27/26/19
f 23/41/20 34/42/20 24/29/20
f 30/20/21 31/43/21 21/23/21
f 34/42/22 45/44/22 35/34/22
f 31/43/22 42/45/22 32/35/22
f 38/33/22 49/46/22 39/36/22
f 35/34/22 46/47/22 36/37/22
f 32/35/22 43/48/22 33/38/22
f 39/36/22 50/49/22 40/39/22
f 36/37/22 47/50/22 37/40/22
f 33/51/22 44/52/22 34/42/22
f 40/39/22 41/53/22 31/43/22
f 38/33/22 47/50/22 48/54/22
f 42/45/23 51/55/23 52/56/23
f 48/54/24 59/57/24 49/46/24
f 45/44/25 56/58/25 46/47/25
f 42/45/26 53/59/26 43/48/26
f 49/46/27 60/60/27 50/49/27
f 46/47/28 57/61/28 47/50/28
f 43/62/29 54/63/29 44/52/29
f 50/49/30 51/55/30 41/53/30
f 47/50/31 58/64/31 48/54/31
f 44/52/32 55/65/32 45/44/32
f 51/66/22 59/67/22 55/68/22
f 7/69/9 15/70/9 19/71/9
f 70/72/11 1/73/11 19/74/11
f 69/75/10 19/74/10 17/76/10
f 68/77/8 17/76/8 15/78/8
f 67/79/7 15/78/7 13/80/7
f 66/81/6 13/80/6 11/82/6
f 65/83/5 11/82/5 9/84/5
f 64/85/4 9/84/4 7/86/4
f 63/87/3 7/86/3 5/88/3
f 62/89/2 5/90/2 3/91/2
f 61/92/1 3/91/1 1/73/1
f 80/93/33 90/94/33 89/95/33
f 79/96/34 89/95/34 88/97/34
f 78/98/35 88/97/35 87/99/35
f 77/100/36 87/99/36 86/101/36
f 85/102/37 77/100/37 86/101/37
f 84/103/38 76/104/38 85/102/38
f 74/105/39 84/103/39 83/106/39
f 73/107/40 83/106/40 82/108/40
f 72/109/41 82/110/41 81/111/41
f 71/112/42 81/111/42 90/94/42
f 90/94/43 91/113/43 100/114/43
f 81/111/44 92/115/44 91/113/44
f 82/108/45 93/116/45 92/117/45
f 83/106/46 94/118/46 93/116/46
f 84/103/47 95/119/47 94/118/47
f 85/102/48 96/120/48 95/119/48
f 86/101/49 97/121/49 96/120/49
f 87/99/50 98/122/50 97/121/50
f 88/97/51 99/123/51 98/122/51
f 89/95/52 100/114/52 99/123/52
f 70/124/53 100/114/53 61/125/53
f 98/122/54 70/124/54 69/126/54
f 68/127/55 98/122/55 69/126/55
f 67/128/56 97/121/56 68/127/56
f 95/119/57 67/128/57 66/129/57
f 65/130/58 95/119/58 66/129/58
f 93/116/59 65/130/59 64/131/59
f 92/117/60 64/131/60 63/132/60
f 91/113/61 63/133/61 62/134/61
f 100/114/62 62/134/62 61/125/62
f 2/1/1 4/4/1 72/2/1
f 4/4/2 6/31/2 73/5/2
f 6/6/3 8/9/3 74/7/3
f 8/9/4 10/11/4 75/10/4
f 10/11/5 12/27/5 76/12/5
f 76/12/6 12/27/6 14/13/6
f 14/13/7 16/16/7 78/15/7
f 16/16/8 18/21/8 79/17/8
f 20/18/9 18/21/9 29/19/9
f 18/21/10 20/18/10 80/22/10
f 20/18/11 2/1/11 71/3/11
f 20/18/9 30/20/9 21/23/9
f 16/16/9 28/24/9 29/19/9
f 14/13/9 27/26/9 28/24/9
f 14/13/9 12/27/9 26/25/9
f 12/27/9 10/11/9 25/28/9
f 10/11/9 8/9/9 24/29/9
f 2/1/9 21/23/9 22/30/9
f 6/6/9 23/41/9 24/29/9
f 6/31/9 4/4/9 22/30/9
f 27/26/12 37/40/12 38/33/12
f 24/29/13 34/42/13 35/34/13
f 21/23/14 31/43/14 32/35/14
f 28/24/15 38/33/15 39/36/15
f 25/28/16 35/34/16 36/37/16
f 22/30/17 32/35/17 33/38/17
f 29/19/18 39/36/18 40/39/18
f 26/25/19 36/37/19 37/40/19
f 23/41/20 33/51/20 34/42/20
f 30/20/21 40/39/21 31/43/21
f 34/42/22 44/52/22 45/44/22
f 31/43/22 41/53/22 42/45/22
f 38/33/22 48/54/22 49/46/22
f 35/34/22 45/44/22 46/47/22
f 32/35/22 42/45/22 43/48/22
f 39/36/22 49/46/22 50/49/22
f 36/37/22 46/47/22 47/50/22
f 33/51/22 43/62/22 44/52/22
f 40/39/22 50/49/22 41/53/22
f 38/33/22 37/40/22 47/50/22
f 42/45/23 41/53/23 51/55/23
f 48/54/24 58/64/24 59/57/24
f 45/44/25 55/65/25 56/58/25
f 42/45/26 52/56/26 53/59/26
f 49/46/27 59/57/27 60/60/27
f 46/47/28 56/58/28 57/61/28
f 43/62/29 53/135/29 54/63/29
f 50/49/30 60/60/30 51/55/30
f 47/50/31 57/61/31 58/64/31
f 44/52/32 54/63/32 55/65/32
f 53/136/22 52/137/22 51/66/22
f 51/66/22 60/138/22 59/67/22
f 59/67/22 58/139/22 57/140/22
f 57/140/22 56/141/22 59/67/22
f 56/141/22 55/68/22 59/67/22
f 55/68/22 54/142/22 53/136/22
f 53/136/22 51/66/22 55/68/22
f 19/71/9 1/143/9 3/144/9
f 3/144/9 5/145/9 7/69/9
f 7/69/9 9/146/9 11/147/9
f 11/147/9 13/148/9 15/70/9
f 15/70/9 17/149/9 19/71/9
f 19/71/9 3/144/9 7/69/9
f 7/69/9 11/147/9 15/70/9
f 70/72/11 61/92/11 1/73/11
f 69/75/10 70/72/10 19/74/10
f 68/77/8 69/75/8 17/76/8
f 67/79/7 68/77/7 15/78/7
f 66/81/6 67/79/6 13/80/6
f 65/83/5 66/81/5 11/82/5
f 64/85/4 65/83/4 9/84/4
f 63/87/3 64/85/3 7/86/3
f 62/89/2 63/150/2 5/90/2
f 61/92/1 62/89/1 3/91/1
f 80/93/33 71/112/33 90/94/33
f 79/96/34 80/93/34 89/95/34
f 78/98/35 79/96/35 88/97/35
f 77/100/36 78/98/36 87/99/36
f 85/102/37 76/104/37 77/100/37
f 84/103/38 75/151/38 76/104/38
f 74/105/39 75/151/39 84/103/39
f 73/107/40 74/105/40 83/106/40
f 72/109/41 73/152/41 82/110/41
f 71/112/42 72/109/42 81/111/42
f 90/94/43 81/111/43 91/113/43
f 81/111/44 82/110/44 92/115/44
f 82/108/45 83/106/45 93/116/45
f 83/106/46 84/103/46 94/118/46
f 84/103/47 85/102/47 95/119/47
f 85/102/48 86/101/48 96/120/48
f 86/101/49 87/99/49 97/121/49
f 87/99/50 88/97/50 98/122/50
f 88/97/51 89/95/51 99/123/51
f 89/95/52 90/94/52 100/114/52
f 70/124/53 99/123/53 100/114/53
f 98/122/54 99/123/54 70/124/54
f 68/127/55 97/121/55 98/122/55
f 67/128/63 96/120/63 97/121/63
f 95/119/57 96/120/57 67/128/57
f 65/130/58 94/118/58 95/119/58
f 93/116/59 94/118/59 65/130/59
f 92/117/60 93/116/60 64/131/60
f 91/113/61 92/115/61 63/133/61
f 100/114/62 91/113/62 62/134/62
